<svg width="296" height="146" viewBox="0 0 296 146" fill="none" xmlns="http://www.w3.org/2000/svg">
<path d="M41.5025 24C41.5025 27 41.0025 29.8 40.0025 32.4C39.0025 35 37.5825 37.3 35.7425 39.3C33.9425 41.26 31.7825 42.8 29.2625 43.92C26.7825 45.04 24.0625 45.6 21.1025 45.6C18.1425 45.6 15.4225 45.04 12.9425 43.92C10.4625 42.8 8.3025 41.26 6.4625 39.3C4.6625 37.3 3.2625 35 2.2625 32.4C1.2625 29.8 0.762503 27 0.762503 24C0.762503 21 1.2625 18.2 2.2625 15.6C3.2625 13 4.6625 10.72 6.4625 8.76C8.3025 6.76 10.4625 5.2 12.9425 4.08C15.4225 2.96 18.1425 2.4 21.1025 2.4C24.0625 2.4 26.7825 2.96 29.2625 4.08C31.7825 5.2 33.9425 6.76 35.7425 8.76C37.5825 10.72 39.0025 13 40.0025 15.6C41.0025 18.2 41.5025 21 41.5025 24ZM33.7025 24C33.7025 21.32 33.1625 18.9 32.0825 16.74C31.0025 14.54 29.5225 12.8 27.6425 11.52C25.7625 10.24 23.5825 9.6 21.1025 9.6C18.6225 9.6 16.4425 10.24 14.5625 11.52C12.6825 12.8 11.2025 14.52 10.1225 16.68C9.0825 18.84 8.5625 21.28 8.5625 24C8.5625 26.68 9.0825 29.12 10.1225 31.32C11.2025 33.48 12.6825 35.2 14.5625 36.48C16.4425 37.76 18.6225 38.4 21.1025 38.4C23.5825 38.4 25.7625 37.76 27.6425 36.48C29.5225 35.2 31.0025 33.48 32.0825 31.32C33.1625 29.12 33.7025 26.68 33.7025 24ZM66.2098 12.3C69.0098 12.3 71.5098 13.02 73.7098 14.46C75.9498 15.86 77.7098 17.8 78.9898 20.28C80.3098 22.76 80.9698 25.64 80.9698 28.92C80.9698 32.2 80.3098 35.1 78.9898 37.62C77.7098 40.1 75.9698 42.06 73.7698 43.5C71.6098 44.9 69.1698 45.6 66.4498 45.6C64.8498 45.6 63.3498 45.34 61.9498 44.82C60.5498 44.3 59.3098 43.64 58.2298 42.84C57.1898 42.04 56.3698 41.24 55.7698 40.44C55.2098 39.6 54.9298 38.9 54.9298 38.34L56.7898 37.56V41.94C56.7898 42.98 56.4498 43.86 55.7698 44.58C55.0898 45.26 54.2298 45.6 53.1898 45.6C52.1498 45.6 51.2898 45.26 50.6098 44.58C49.9298 43.9 49.5898 43.02 49.5898 41.94V4.26C49.5898 3.22 49.9298 2.36 50.6098 1.68C51.2898 0.959998 52.1498 0.599999 53.1898 0.599999C54.2298 0.599999 55.0898 0.959998 55.7698 1.68C56.4498 2.36 56.7898 3.22 56.7898 4.26V19.5L55.7698 18.96C55.7698 18.44 56.0498 17.82 56.6098 17.1C57.1698 16.34 57.9298 15.6 58.8898 14.88C59.8498 14.12 60.9498 13.5 62.1898 13.02C63.4698 12.54 64.8098 12.3 66.2098 12.3ZM65.3098 18.9C63.5498 18.9 62.0098 19.34 60.6898 20.22C59.3698 21.1 58.3298 22.3 57.5698 23.82C56.8498 25.3 56.4898 27 56.4898 28.92C56.4898 30.8 56.8498 32.52 57.5698 34.08C58.3298 35.6 59.3698 36.8 60.6898 37.68C62.0098 38.56 63.5498 39 65.3098 39C67.0698 39 68.5898 38.56 69.8698 37.68C71.1898 36.8 72.2098 35.6 72.9298 34.08C73.6898 32.52 74.0698 30.8 74.0698 28.92C74.0698 27 73.6898 25.3 72.9298 23.82C72.2098 22.3 71.1898 21.1 69.8698 20.22C68.5898 19.34 67.0698 18.9 65.3098 18.9ZM115.346 12.3C116.386 12.3 117.246 12.64 117.926 13.32C118.606 14 118.946 14.88 118.946 15.96V41.34C118.946 42.38 118.606 43.26 117.926 43.98C117.246 44.66 116.386 45 115.346 45C114.306 45 113.446 44.66 112.766 43.98C112.086 43.26 111.746 42.38 111.746 41.34V38.4L113.066 38.94C113.066 39.46 112.786 40.1 112.226 40.86C111.666 41.58 110.906 42.3 109.946 43.02C108.986 43.74 107.846 44.36 106.526 44.88C105.246 45.36 103.846 45.6 102.326 45.6C99.5656 45.6 97.0656 44.9 94.8256 43.5C92.5856 42.06 90.8056 40.1 89.4856 37.62C88.2056 35.1 87.5656 32.22 87.5656 28.98C87.5656 25.7 88.2056 22.82 89.4856 20.34C90.8056 17.82 92.5656 15.86 94.7656 14.46C96.9656 13.02 99.4056 12.3 102.086 12.3C103.806 12.3 105.386 12.56 106.826 13.08C108.266 13.6 109.506 14.26 110.546 15.06C111.626 15.86 112.446 16.68 113.006 17.52C113.606 18.32 113.906 19 113.906 19.56L111.746 20.34V15.96C111.746 14.92 112.086 14.06 112.766 13.38C113.446 12.66 114.306 12.3 115.346 12.3ZM103.226 39C104.986 39 106.526 38.56 107.846 37.68C109.166 36.8 110.186 35.6 110.906 34.08C111.666 32.56 112.046 30.86 112.046 28.98C112.046 27.06 111.666 25.34 110.906 23.82C110.186 22.3 109.166 21.1 107.846 20.22C106.526 19.34 104.986 18.9 103.226 18.9C101.506 18.9 99.9856 19.34 98.6656 20.22C97.3456 21.1 96.3056 22.3 95.5456 23.82C94.8256 25.34 94.4656 27.06 94.4656 28.98C94.4656 30.86 94.8256 32.56 95.5456 34.08C96.3056 35.6 97.3456 36.8 98.6656 37.68C99.9856 38.56 101.506 39 103.226 39ZM145.701 12.3C148.661 12.3 150.901 12.92 152.421 14.16C153.981 15.4 155.041 17.06 155.601 19.14C156.201 21.18 156.501 23.46 156.501 25.98V41.34C156.501 42.38 156.161 43.26 155.481 43.98C154.801 44.66 153.941 45 152.901 45C151.861 45 151.001 44.66 150.321 43.98C149.641 43.26 149.301 42.38 149.301 41.34V25.98C149.301 24.66 149.121 23.48 148.761 22.44C148.441 21.36 147.841 20.5 146.961 19.86C146.081 19.22 144.821 18.9 143.181 18.9C141.581 18.9 140.221 19.22 139.101 19.86C138.021 20.5 137.181 21.36 136.581 22.44C136.021 23.48 135.741 24.66 135.741 25.98V41.34C135.741 42.38 135.401 43.26 134.721 43.98C134.041 44.66 133.181 45 132.141 45C131.101 45 130.241 44.66 129.561 43.98C128.881 43.26 128.541 42.38 128.541 41.34V16.56C128.541 15.52 128.881 14.66 129.561 13.98C130.241 13.26 131.101 12.9 132.141 12.9C133.181 12.9 134.041 13.26 134.721 13.98C135.401 14.66 135.741 15.52 135.741 16.56V19.14L134.841 18.96C135.201 18.28 135.721 17.56 136.401 16.8C137.081 16 137.881 15.26 138.801 14.58C139.721 13.9 140.761 13.36 141.921 12.96C143.081 12.52 144.341 12.3 145.701 12.3ZM172.864 41.34C172.864 42.38 172.524 43.26 171.844 43.98C171.164 44.66 170.304 45 169.264 45C168.224 45 167.364 44.66 166.684 43.98C166.004 43.26 165.664 42.38 165.664 41.34V16.56C165.664 15.52 166.004 14.66 166.684 13.98C167.364 13.26 168.224 12.9 169.264 12.9C170.304 12.9 171.164 13.26 171.844 13.98C172.524 14.66 172.864 15.52 172.864 16.56V41.34ZM169.204 9C167.844 9 166.884 8.78 166.324 8.34C165.764 7.9 165.484 7.12 165.484 6V4.86C165.484 3.7 165.784 2.92 166.384 2.52C167.024 2.08 167.984 1.86 169.264 1.86C170.664 1.86 171.644 2.08 172.204 2.52C172.764 2.96 173.044 3.74 173.044 4.86V6C173.044 7.16 172.744 7.96 172.144 8.4C171.544 8.8 170.564 9 169.204 9ZM190.163 45.6C190.163 47.88 189.723 49.84 188.843 51.48C187.963 53.16 186.783 54.46 185.303 55.38C183.823 56.3 182.163 56.76 180.323 56.76C179.323 56.76 178.523 56.42 177.923 55.74C177.283 55.1 176.963 54.32 176.963 53.4V52.74C176.963 51.86 177.263 51.16 177.863 50.64C178.423 50.12 179.143 49.72 180.023 49.44C180.983 49.12 181.663 48.66 182.063 48.06C182.463 47.5 182.703 46.82 182.783 46.02C182.903 45.22 182.963 44.38 182.963 43.5V16.56C182.963 15.52 183.303 14.66 183.983 13.98C184.663 13.26 185.523 12.9 186.563 12.9C187.603 12.9 188.463 13.26 189.143 13.98C189.823 14.66 190.163 15.52 190.163 16.56V45.6ZM186.443 9C185.083 9 184.123 8.78 183.563 8.34C183.003 7.9 182.723 7.12 182.723 6V4.86C182.723 3.7 183.023 2.92 183.623 2.52C184.263 2.08 185.223 1.86 186.503 1.86C187.903 1.86 188.883 2.08 189.443 2.52C190.003 2.96 190.283 3.74 190.283 4.86V6C190.283 7.16 189.983 7.96 189.383 8.4C188.783 8.8 187.803 9 186.443 9ZM215.507 45.6C212.107 45.6 209.147 44.9 206.627 43.5C204.147 42.06 202.227 40.12 200.867 37.68C199.547 35.24 198.887 32.48 198.887 29.4C198.887 25.8 199.607 22.74 201.047 20.22C202.527 17.66 204.447 15.7 206.807 14.34C209.167 12.98 211.667 12.3 214.307 12.3C216.347 12.3 218.267 12.72 220.067 13.56C221.907 14.4 223.527 15.56 224.927 17.04C226.327 18.48 227.427 20.16 228.227 22.08C229.067 24 229.487 26.04 229.487 28.2C229.447 29.16 229.067 29.94 228.347 30.54C227.627 31.14 226.787 31.44 225.827 31.44H202.907L201.107 25.44H223.127L221.807 26.64V25.02C221.727 23.86 221.307 22.82 220.547 21.9C219.827 20.98 218.907 20.26 217.787 19.74C216.707 19.18 215.547 18.9 214.307 18.9C213.107 18.9 211.987 19.06 210.947 19.38C209.907 19.7 209.007 20.24 208.247 21C207.487 21.76 206.887 22.78 206.447 24.06C206.007 25.34 205.787 26.96 205.787 28.92C205.787 31.08 206.227 32.92 207.107 34.44C208.027 35.92 209.187 37.06 210.587 37.86C212.027 38.62 213.547 39 215.147 39C216.627 39 217.807 38.88 218.687 38.64C219.567 38.4 220.267 38.12 220.787 37.8C221.347 37.44 221.847 37.14 222.287 36.9C223.007 36.54 223.687 36.36 224.327 36.36C225.207 36.36 225.927 36.66 226.487 37.26C227.087 37.86 227.387 38.56 227.387 39.36C227.387 40.44 226.827 41.42 225.707 42.3C224.667 43.18 223.207 43.96 221.327 44.64C219.447 45.28 217.507 45.6 215.507 45.6ZM235.717 40.02C235.317 39.46 235.137 38.74 235.177 37.86C235.217 36.98 235.737 36.22 236.737 35.58C237.377 35.18 238.057 35.02 238.777 35.1C239.497 35.14 240.197 35.5 240.877 36.18C242.037 37.34 243.257 38.24 244.537 38.88C245.817 39.52 247.417 39.84 249.337 39.84C249.937 39.8 250.597 39.72 251.317 39.6C252.037 39.44 252.657 39.12 253.177 38.64C253.737 38.12 254.017 37.34 254.017 36.3C254.017 35.42 253.717 34.72 253.117 34.2C252.517 33.68 251.717 33.24 250.717 32.88C249.757 32.52 248.677 32.18 247.477 31.86C246.237 31.5 244.957 31.1 243.637 30.66C242.357 30.22 241.177 29.66 240.097 28.98C239.017 28.26 238.137 27.32 237.457 26.16C236.777 25 236.437 23.54 236.437 21.78C236.437 19.78 236.997 18.08 238.117 16.68C239.237 15.28 240.677 14.2 242.437 13.44C244.237 12.68 246.117 12.3 248.077 12.3C249.317 12.3 250.617 12.46 251.977 12.78C253.337 13.06 254.637 13.54 255.877 14.22C257.117 14.86 258.157 15.72 258.997 16.8C259.437 17.4 259.697 18.12 259.777 18.96C259.857 19.8 259.477 20.56 258.637 21.24C258.037 21.72 257.337 21.94 256.537 21.9C255.737 21.82 255.077 21.54 254.557 21.06C253.877 20.18 252.957 19.48 251.797 18.96C250.677 18.44 249.377 18.18 247.897 18.18C247.297 18.18 246.637 18.26 245.917 18.42C245.237 18.54 244.637 18.84 244.117 19.32C243.597 19.76 243.337 20.48 243.337 21.48C243.337 22.4 243.637 23.14 244.237 23.7C244.837 24.22 245.637 24.66 246.637 25.02C247.677 25.34 248.777 25.66 249.937 25.98C251.137 26.3 252.357 26.68 253.597 27.12C254.837 27.56 255.977 28.14 257.017 28.86C258.057 29.58 258.897 30.52 259.537 31.68C260.177 32.8 260.497 34.24 260.497 36C260.497 38.04 259.897 39.78 258.697 41.22C257.497 42.66 255.997 43.76 254.197 44.52C252.397 45.24 250.557 45.6 248.677 45.6C246.317 45.6 243.957 45.2 241.597 44.4C239.237 43.56 237.277 42.1 235.717 40.02ZM292.143 12.9C293.183 12.9 294.043 13.26 294.723 13.98C295.403 14.66 295.743 15.52 295.743 16.56V31.8C295.743 36.04 294.563 39.4 292.203 41.88C289.843 44.36 286.443 45.6 282.003 45.6C277.563 45.6 274.163 44.36 271.803 41.88C269.483 39.4 268.323 36.04 268.323 31.8V16.56C268.323 15.52 268.663 14.66 269.343 13.98C270.023 13.26 270.883 12.9 271.923 12.9C272.963 12.9 273.823 13.26 274.503 13.98C275.183 14.66 275.523 15.52 275.523 16.56V31.8C275.523 34.24 276.063 36.06 277.143 37.26C278.223 38.42 279.843 39 282.003 39C284.203 39 285.843 38.42 286.923 37.26C288.003 36.06 288.543 34.24 288.543 31.8V16.56C288.543 15.52 288.883 14.66 289.563 13.98C290.243 13.26 291.103 12.9 292.143 12.9ZM79.363 112.42L66.403 142.9C66.123 143.66 65.683 144.26 65.083 144.7C64.523 145.1 63.903 145.3 63.223 145.3C62.143 145.3 61.343 145 60.823 144.4C60.303 143.8 60.043 143.06 60.043 142.18C60.043 141.82 60.103 141.44 60.223 141.04L75.163 105.16C75.483 104.36 75.963 103.74 76.603 103.3C77.283 102.86 78.003 102.68 78.763 102.76C79.483 102.76 80.143 102.98 80.743 103.42C81.383 103.82 81.843 104.4 82.123 105.16L96.883 140.32C97.083 140.84 97.183 141.32 97.183 141.76C97.183 142.84 96.823 143.7 96.103 144.34C95.423 144.98 94.663 145.3 93.823 145.3C93.103 145.3 92.443 145.08 91.843 144.64C91.283 144.2 90.843 143.6 90.523 142.84L77.623 112.78L79.363 112.42ZM68.263 135.58L71.563 128.68H87.763L88.903 135.58H68.263ZM129.743 100.6C130.783 100.6 131.643 100.94 132.323 101.62C133.003 102.3 133.343 103.18 133.343 104.26V141.34C133.343 142.38 133.003 143.26 132.323 143.98C131.643 144.66 130.783 145 129.743 145C128.703 145 127.843 144.66 127.163 143.98C126.483 143.26 126.143 142.38 126.143 141.34V138.4L127.463 138.94C127.463 139.46 127.183 140.1 126.623 140.86C126.063 141.58 125.303 142.3 124.343 143.02C123.383 143.74 122.243 144.36 120.923 144.88C119.643 145.36 118.243 145.6 116.723 145.6C113.963 145.6 111.463 144.9 109.223 143.5C106.983 142.06 105.203 140.1 103.883 137.62C102.603 135.1 101.963 132.22 101.963 128.98C101.963 125.7 102.603 122.82 103.883 120.34C105.203 117.82 106.963 115.86 109.163 114.46C111.363 113.02 113.803 112.3 116.483 112.3C118.203 112.3 119.783 112.56 121.223 113.08C122.663 113.6 123.903 114.26 124.943 115.06C126.023 115.86 126.843 116.68 127.403 117.52C128.003 118.32 128.303 119 128.303 119.56L126.143 120.34V104.26C126.143 103.22 126.483 102.36 127.163 101.68C127.843 100.96 128.703 100.6 129.743 100.6ZM117.623 139C119.383 139 120.923 138.56 122.243 137.68C123.563 136.8 124.583 135.6 125.303 134.08C126.063 132.56 126.443 130.86 126.443 128.98C126.443 127.06 126.063 125.34 125.303 123.82C124.583 122.3 123.563 121.1 122.243 120.22C120.923 119.34 119.383 118.9 117.623 118.9C115.903 118.9 114.383 119.34 113.063 120.22C111.743 121.1 110.703 122.3 109.943 123.82C109.223 125.34 108.863 127.06 108.863 128.98C108.863 130.86 109.223 132.56 109.943 134.08C110.703 135.6 111.743 136.8 113.063 137.68C114.383 138.56 115.903 139 117.623 139ZM167.697 112.9C168.737 112.9 169.597 113.26 170.277 113.98C170.957 114.66 171.297 115.52 171.297 116.56V131.8C171.297 136.04 170.117 139.4 167.757 141.88C165.397 144.36 161.997 145.6 157.557 145.6C153.117 145.6 149.717 144.36 147.357 141.88C145.037 139.4 143.877 136.04 143.877 131.8V116.56C143.877 115.52 144.217 114.66 144.897 113.98C145.577 113.26 146.437 112.9 147.477 112.9C148.517 112.9 149.377 113.26 150.057 113.98C150.737 114.66 151.077 115.52 151.077 116.56V131.8C151.077 134.24 151.617 136.06 152.697 137.26C153.777 138.42 155.397 139 157.557 139C159.757 139 161.397 138.42 162.477 137.26C163.557 136.06 164.097 134.24 164.097 131.8V116.56C164.097 115.52 164.437 114.66 165.117 113.98C165.797 113.26 166.657 112.9 167.697 112.9ZM197.391 100.6C198.271 100.6 199.131 100.72 199.971 100.96C200.811 101.2 201.511 101.6 202.071 102.16C202.631 102.68 202.911 103.38 202.911 104.26C202.911 105.26 202.611 106.06 202.011 106.66C201.451 107.22 200.791 107.5 200.031 107.5C199.671 107.5 199.131 107.42 198.411 107.26C197.691 107.06 196.991 106.96 196.311 106.96C195.311 106.96 194.531 107.18 193.971 107.62C193.451 108.06 193.091 108.58 192.891 109.18C192.691 109.74 192.591 110.24 192.591 110.68V141.34C192.591 142.38 192.251 143.26 191.571 143.98C190.891 144.66 190.031 145 188.991 145C187.951 145 187.091 144.66 186.411 143.98C185.731 143.26 185.391 142.38 185.391 141.34V110.74C185.391 107.9 186.391 105.5 188.391 103.54C190.391 101.58 193.391 100.6 197.391 100.6ZM198.051 113.5C199.011 113.5 199.811 113.82 200.451 114.46C201.091 115.06 201.411 115.84 201.411 116.8C201.411 117.76 201.091 118.56 200.451 119.2C199.811 119.8 199.011 120.1 198.051 120.1H182.151C181.191 120.1 180.391 119.8 179.751 119.2C179.111 118.56 178.791 117.76 178.791 116.8C178.791 115.84 179.111 115.06 179.751 114.46C180.391 113.82 181.191 113.5 182.151 113.5H198.051ZM222.186 145.6C218.786 145.6 215.826 144.9 213.306 143.5C210.826 142.06 208.906 140.12 207.546 137.68C206.226 135.24 205.566 132.48 205.566 129.4C205.566 125.8 206.286 122.74 207.726 120.22C209.206 117.66 211.126 115.7 213.486 114.34C215.846 112.98 218.346 112.3 220.986 112.3C223.026 112.3 224.946 112.72 226.746 113.56C228.586 114.4 230.206 115.56 231.606 117.04C233.006 118.48 234.106 120.16 234.906 122.08C235.746 124 236.166 126.04 236.166 128.2C236.126 129.16 235.746 129.94 235.026 130.54C234.306 131.14 233.466 131.44 232.506 131.44H209.586L207.786 125.44H229.806L228.486 126.64V125.02C228.406 123.86 227.986 122.82 227.226 121.9C226.506 120.98 225.586 120.26 224.466 119.74C223.386 119.18 222.226 118.9 220.986 118.9C219.786 118.9 218.666 119.06 217.626 119.38C216.586 119.7 215.686 120.24 214.926 121C214.166 121.76 213.566 122.78 213.126 124.06C212.686 125.34 212.466 126.96 212.466 128.92C212.466 131.08 212.906 132.92 213.786 134.44C214.706 135.92 215.866 137.06 217.266 137.86C218.706 138.62 220.226 139 221.826 139C223.306 139 224.486 138.88 225.366 138.64C226.246 138.4 226.946 138.12 227.466 137.8C228.026 137.44 228.526 137.14 228.966 136.9C229.686 136.54 230.366 136.36 231.006 136.36C231.886 136.36 232.606 136.66 233.166 137.26C233.766 137.86 234.066 138.56 234.066 139.36C234.066 140.44 233.506 141.42 232.386 142.3C231.346 143.18 229.886 143.96 228.006 144.64C226.126 145.28 224.186 145.6 222.186 145.6Z" fill="white"/>
<path d="M40.0025 32.4L39.0692 32.041L39.0692 32.041L40.0025 32.4ZM35.7425 39.3L35.0066 38.6229L35.006 38.6236L35.7425 39.3ZM29.2625 43.92L28.8564 43.0062L28.8509 43.0086L29.2625 43.92ZM12.9425 43.92L13.3541 43.0086L13.3541 43.0086L12.9425 43.92ZM6.4625 39.3L5.71921 39.969L5.72624 39.9768L5.73343 39.9844L6.4625 39.3ZM2.2625 32.4L3.19585 32.041L3.19585 32.041L2.2625 32.4ZM2.2625 15.6L3.19585 15.959L3.19585 15.959L2.2625 15.6ZM6.4625 8.76L5.72657 8.08294L5.72597 8.08359L6.4625 8.76ZM12.9425 4.08L13.3541 4.99137L13.3541 4.99137L12.9425 4.08ZM29.2625 4.08L28.8509 4.99138L28.8564 4.99381L29.2625 4.08ZM35.7425 8.76L34.9992 9.42896L35.0062 9.43677L35.0134 9.44443L35.7425 8.76ZM40.0025 15.6L39.0692 15.959L39.0692 15.959L40.0025 15.6ZM32.0825 16.74L31.1848 17.1807L31.1881 17.1872L32.0825 16.74ZM27.6425 11.52L28.2053 10.6934L28.2053 10.6934L27.6425 11.52ZM14.5625 11.52L15.1253 12.3466L15.1253 12.3466L14.5625 11.52ZM10.1225 16.68L9.22808 16.2328L9.22474 16.2395L9.2215 16.2462L10.1225 16.68ZM10.1225 31.32L9.21843 31.7474L9.22314 31.7573L9.22808 31.7672L10.1225 31.32ZM14.5625 36.48L15.1253 35.6534L15.1253 35.6534L14.5625 36.48ZM27.6425 36.48L28.2053 37.3066L28.2053 37.3066L27.6425 36.48ZM32.0825 31.32L32.977 31.7672L32.9802 31.7607L32.0825 31.32ZM40.5025 24C40.5025 26.8868 40.0218 29.5641 39.0692 32.041L40.9358 32.759C41.9832 30.0359 42.5025 27.1132 42.5025 24H40.5025ZM39.0692 32.041C38.1132 34.5265 36.7592 36.7179 35.0066 38.6229L36.4784 39.9771C38.4058 37.8821 39.8918 35.4735 40.9358 32.759L39.0692 32.041ZM35.006 38.6236C33.3021 40.479 31.2558 41.9398 28.8564 43.0062L29.6686 44.8338C32.3092 43.6602 34.583 42.041 36.479 39.9764L35.006 38.6236ZM28.8509 43.0086C26.5113 44.0652 23.9332 44.6 21.1025 44.6V46.6C24.1918 46.6 27.0537 46.0148 29.6741 44.8314L28.8509 43.0086ZM21.1025 44.6C18.2718 44.6 15.6937 44.0652 13.3541 43.0086L12.5309 44.8314C15.1513 46.0148 18.0132 46.6 21.1025 46.6V44.6ZM13.3541 43.0086C10.9923 41.942 8.94056 40.4786 7.19158 38.6156L5.73343 39.9844C7.66445 42.0414 9.93271 43.658 12.5309 44.8314L13.3541 43.0086ZM7.2058 38.631C5.49044 36.7251 4.15355 34.531 3.19585 32.041L1.32916 32.759C2.37146 35.469 3.83457 37.8749 5.71921 39.969L7.2058 38.631ZM3.19585 32.041C2.24319 29.5641 1.7625 26.8868 1.7625 24H-0.237497C-0.237497 27.1132 0.281812 30.0359 1.32916 32.759L3.19585 32.041ZM1.7625 24C1.7625 21.1132 2.24319 18.4359 3.19585 15.959L1.32916 15.241C0.281812 17.9641 -0.237497 20.8868 -0.237497 24H1.7625ZM3.19585 15.959C4.1529 13.4706 5.48794 11.2996 7.19903 9.4364L5.72597 8.08359C3.83707 10.1404 2.3721 12.5294 1.32916 15.241L3.19585 15.959ZM7.19843 9.43705C8.94709 7.53634 10.9967 6.05599 13.3541 4.99137L12.5309 3.16863C9.92829 4.34401 7.65792 5.98365 5.72657 8.08294L7.19843 9.43705ZM13.3541 4.99137C15.6937 3.93476 18.2718 3.4 21.1025 3.4V1.4C18.0132 1.4 15.1513 1.98524 12.5309 3.16863L13.3541 4.99137ZM21.1025 3.4C23.9332 3.4 26.5113 3.93476 28.8509 4.99137L29.6741 3.16863C27.0537 1.98524 24.1918 1.4 21.1025 1.4V3.4ZM28.8564 4.99381C31.2513 6.05823 33.2955 7.53598 34.9992 9.42896L36.4858 8.09103C34.5895 5.98401 32.3137 4.34176 29.6686 3.16619L28.8564 4.99381ZM35.0134 9.44443C36.7617 11.3068 38.1139 13.4752 39.0692 15.959L40.9358 15.241C39.8912 12.5248 38.4033 10.1332 36.4716 8.07556L35.0134 9.44443ZM39.0692 15.959C40.0218 18.4359 40.5025 21.1132 40.5025 24H42.5025C42.5025 20.8868 41.9832 17.9641 40.9358 15.241L39.0692 15.959ZM34.7025 24C34.7025 21.182 34.1337 18.6063 32.9769 16.2928L31.1881 17.1872C32.1913 19.1937 32.7025 21.458 32.7025 24H34.7025ZM32.9802 16.2993C31.83 13.9563 30.2395 12.0784 28.2053 10.6934L27.0797 12.3466C28.8055 13.5216 30.1751 15.1237 31.1848 17.1807L32.9802 16.2993ZM28.2053 10.6934C26.1443 9.29018 23.7643 8.6 21.1025 8.6V10.6C23.4007 10.6 25.3807 11.1898 27.0797 12.3466L28.2053 10.6934ZM21.1025 8.6C18.4407 8.6 16.0607 9.29018 13.9997 10.6934L15.1253 12.3466C16.8243 11.1898 18.8043 10.6 21.1025 10.6V8.6ZM13.9997 10.6934C11.9698 12.0754 10.3795 13.9298 9.22808 16.2328L11.0169 17.1272C12.0255 15.1101 13.3952 13.5246 15.1253 12.3466L13.9997 10.6934ZM9.2215 16.2462C8.10807 18.5587 7.5625 21.1501 7.5625 24H9.5625C9.5625 21.4099 10.0569 19.1213 11.0235 17.1138L9.2215 16.2462ZM7.5625 24C7.5625 26.8127 8.1091 29.4007 9.21843 31.7474L11.0266 30.8926C10.0559 28.8393 9.5625 26.5473 9.5625 24H7.5625ZM9.22808 31.7672C10.3795 34.0701 11.9698 35.9246 13.9997 37.3066L15.1253 35.6534C13.3952 34.4754 12.0255 32.8899 11.0169 30.8728L9.22808 31.7672ZM13.9997 37.3066C16.0607 38.7098 18.4407 39.4 21.1025 39.4V37.4C18.8043 37.4 16.8243 36.8102 15.1253 35.6534L13.9997 37.3066ZM21.1025 39.4C23.7643 39.4 26.1443 38.7098 28.2053 37.3066L27.0797 35.6534C25.3807 36.8102 23.4007 37.4 21.1025 37.4V39.4ZM28.2053 37.3066C30.2352 35.9246 31.8255 34.0701 32.9769 31.7672L31.1881 30.8728C30.1795 32.8899 28.8098 34.4754 27.0797 35.6534L28.2053 37.3066ZM32.9802 31.7607C34.1336 29.4111 34.7025 26.8183 34.7025 24H32.7025C32.7025 26.5417 32.1914 28.8289 31.1848 30.8793L32.9802 31.7607ZM73.7098 14.46L73.1622 15.2967L73.171 15.3024L73.1798 15.308L73.7098 14.46ZM78.9898 20.28L78.1012 20.7387L78.1071 20.7498L78.9898 20.28ZM78.9898 37.62L78.104 37.156L78.1012 37.1614L78.9898 37.62ZM73.7698 43.5L74.3137 44.3392L74.3175 44.3367L73.7698 43.5ZM61.9498 44.82L62.298 43.8826L62.298 43.8826L61.9498 44.82ZM58.2298 42.84L57.6201 43.6326L57.6273 43.6382L57.6346 43.6436L58.2298 42.84ZM55.7698 40.44L54.9378 40.9947L54.9532 41.0178L54.9698 41.04L55.7698 40.44ZM54.9298 38.34L54.5431 37.4178L53.9298 37.675V38.34H54.9298ZM56.7898 37.56H57.7898V36.0563L56.4031 36.6378L56.7898 37.56ZM55.7698 44.58L56.477 45.2871L56.4871 45.277L56.4969 45.2666L55.7698 44.58ZM50.6098 44.58L49.9027 45.2871L49.9027 45.2871L50.6098 44.58ZM50.6098 1.68L51.317 2.3871L51.3271 2.377L51.3369 2.36662L50.6098 1.68ZM55.7698 1.68L55.0428 2.36662L55.0526 2.377L55.0627 2.3871L55.7698 1.68ZM56.7898 19.5L56.322 20.3838L57.7898 21.1609V19.5H56.7898ZM55.7698 18.96H54.7698V19.5621L55.302 19.8438L55.7698 18.96ZM56.6098 17.1L57.3992 17.7139L57.4072 17.7037L57.4149 17.6932L56.6098 17.1ZM58.8898 14.88L59.4898 15.68L59.5003 15.6722L59.5105 15.664L58.8898 14.88ZM62.1898 13.02L61.8387 12.0836L61.8289 12.0874L62.1898 13.02ZM60.6898 20.22L61.2445 21.052L61.2445 21.052L60.6898 20.22ZM57.5698 23.82L56.6754 23.3728L56.6706 23.3825L57.5698 23.82ZM57.5698 34.08L56.6619 34.4991L56.6684 34.5132L56.6754 34.5272L57.5698 34.08ZM60.6898 37.68L60.1351 38.512L60.1351 38.512L60.6898 37.68ZM69.8698 37.68L69.3151 36.8479L69.3092 36.8519L69.3033 36.856L69.8698 37.68ZM72.9298 34.08L72.0308 33.642L72.0261 33.6519L72.9298 34.08ZM72.9298 23.82L72.0261 24.2481L72.033 24.2626L72.0403 24.2768L72.9298 23.82ZM69.8698 20.22L69.3033 21.044L69.3092 21.0481L69.3151 21.052L69.8698 20.22ZM66.2098 13.3C68.8285 13.3 71.1357 13.9703 73.1622 15.2967L74.2575 13.6233C71.884 12.0697 69.1912 11.3 66.2098 11.3V13.3ZM73.1798 15.308C75.2588 16.6073 76.8988 18.4089 78.1012 20.7386L79.8785 19.8214C78.5209 17.1911 76.6409 15.1127 74.2398 13.612L73.1798 15.308ZM78.1071 20.7498C79.3381 23.0627 79.9698 25.7763 79.9698 28.92H81.9698C81.9698 25.5037 81.2816 22.4573 79.8726 19.8101L78.1071 20.7498ZM79.9698 28.92C79.9698 32.0632 79.3383 34.7997 78.104 37.156L79.8757 38.084C81.2814 35.4003 81.9698 32.3368 81.9698 28.92H79.9698ZM78.1012 37.1614C76.8953 39.4978 75.2689 41.3236 73.2222 42.6633L74.3175 44.3367C76.6708 42.7964 78.5244 40.7022 79.8785 38.0786L78.1012 37.1614ZM73.226 42.6608C71.2373 43.9498 68.9883 44.6 66.4498 44.6V46.6C69.3514 46.6 71.9824 45.8502 74.3137 44.3392L73.226 42.6608ZM66.4498 44.6C64.9602 44.6 63.5789 44.3583 62.298 43.8826L61.6017 45.7574C63.1208 46.3217 64.7395 46.6 66.4498 46.6V44.6ZM62.298 43.8826C60.9766 43.3918 59.8216 42.7746 58.8251 42.0364L57.6346 43.6436C58.7981 44.5054 60.1231 45.2082 61.6017 45.7574L62.298 43.8826ZM58.8396 42.0474C57.8504 41.2865 57.1016 40.5489 56.5698 39.84L54.9698 41.04C55.6381 41.9311 56.5293 42.7935 57.6201 43.6326L58.8396 42.0474ZM56.6019 39.8853C56.0751 39.0951 55.9298 38.5994 55.9298 38.34H53.9298C53.9298 39.2006 54.3446 40.1049 54.9378 40.9947L56.6019 39.8853ZM55.3166 39.2622L57.1766 38.4822L56.4031 36.6378L54.5431 37.4178L55.3166 39.2622ZM55.7898 37.56V41.94H57.7898V37.56H55.7898ZM55.7898 41.94C55.7898 42.7388 55.5381 43.369 55.0428 43.8934L56.4969 45.2666C57.3616 44.351 57.7898 43.2212 57.7898 41.94H55.7898ZM55.0627 43.8729C54.5865 44.3491 53.9885 44.6 53.1898 44.6V46.6C54.4712 46.6 55.5932 46.1709 56.477 45.2871L55.0627 43.8729ZM53.1898 44.6C52.3912 44.6 51.7932 44.3491 51.317 43.8729L49.9027 45.2871C50.7865 46.1709 51.9085 46.6 53.1898 46.6V44.6ZM51.317 43.8729C50.8483 43.4042 50.5898 42.7904 50.5898 41.94H48.5898C48.5898 43.2496 49.0114 44.3958 49.9027 45.2871L51.317 43.8729ZM50.5898 41.94V4.26H48.5898V41.94H50.5898ZM50.5898 4.26C50.5898 3.46137 50.8407 2.86335 51.317 2.3871L49.9027 0.97289C49.019 1.85664 48.5898 2.97863 48.5898 4.26H50.5898ZM51.3369 2.36662C51.8176 1.85763 52.4095 1.6 53.1898 1.6V-0.400001C51.8902 -0.400001 50.7621 0.0623629 49.8828 0.993372L51.3369 2.36662ZM53.1898 1.6C53.9702 1.6 54.5621 1.85763 55.0428 2.36662L56.4969 0.993372C55.6176 0.0623628 54.4895 -0.400001 53.1898 -0.400001V1.6ZM55.0627 2.3871C55.539 2.86335 55.7898 3.46136 55.7898 4.26H57.7898C57.7898 2.97863 57.3607 1.85664 56.477 0.97289L55.0627 2.3871ZM55.7898 4.26V19.5H57.7898V4.26H55.7898ZM57.2577 18.6162L56.2377 18.0762L55.302 19.8438L56.322 20.3838L57.2577 18.6162ZM56.7698 18.96C56.7698 18.7762 56.8837 18.3767 57.3992 17.7139L55.8205 16.4861C55.216 17.2633 54.7698 18.1038 54.7698 18.96H56.7698ZM57.4149 17.6932C57.9038 17.0297 58.5879 16.3565 59.4898 15.68L58.2898 14.08C57.2718 14.8435 56.4359 15.6503 55.8048 16.5068L57.4149 17.6932ZM59.5105 15.664C60.3855 14.9714 61.3964 14.3995 62.5508 13.9526L61.8289 12.0874C60.5033 12.6005 59.3142 13.2686 58.2691 14.096L59.5105 15.664ZM62.541 13.9563C63.706 13.5195 64.9268 13.3 66.2098 13.3V11.3C64.6929 11.3 63.2337 11.5605 61.8387 12.0837L62.541 13.9563ZM65.3098 17.9C63.3749 17.9 61.6371 18.3866 60.1351 19.3879L61.2445 21.052C62.3826 20.2934 63.7248 19.9 65.3098 19.9V17.9ZM60.1351 19.3879C58.66 20.3713 57.5075 21.7086 56.6754 23.3728L58.4643 24.2672C59.1522 22.8914 60.0796 21.8286 61.2445 21.052L60.1351 19.3879ZM56.6706 23.3825C55.8741 25.0198 55.4898 26.8736 55.4898 28.92H57.4898C57.4898 27.1264 57.8256 25.5802 58.4691 24.2575L56.6706 23.3825ZM55.4898 28.92C55.4898 30.9309 55.8757 32.7957 56.6619 34.4991L58.4778 33.6609C57.824 32.2443 57.4898 30.6691 57.4898 28.92H55.4898ZM56.6754 34.5272C57.5075 36.1914 58.66 37.5287 60.1351 38.512L61.2445 36.8479C60.0796 36.0713 59.1522 35.0086 58.4643 33.6328L56.6754 34.5272ZM60.1351 38.512C61.6371 39.5134 63.3749 40 65.3098 40V38C63.7248 38 62.3826 37.6066 61.2445 36.8479L60.1351 38.512ZM65.3098 40C67.2443 40 68.9681 39.5135 70.4364 38.504L69.3033 36.856C68.2116 37.6065 66.8954 38 65.3098 38V40ZM70.4245 38.512C71.9045 37.5254 73.0409 36.1816 73.8336 34.5081L72.0261 33.6519C71.3788 35.0184 70.4752 36.0746 69.3151 36.8479L70.4245 38.512ZM73.8288 34.518C74.6607 32.8104 75.0698 30.9389 75.0698 28.92H73.0698C73.0698 30.6611 72.719 32.2296 72.0309 33.642L73.8288 34.518ZM75.0698 28.92C75.0698 26.8657 74.6624 25.0049 73.8194 23.3632L72.0403 24.2768C72.7173 25.5951 73.0698 27.1343 73.0698 28.92H75.0698ZM73.8336 23.3919C73.0409 21.7184 71.9045 20.3746 70.4245 19.3879L69.3151 21.052C70.4752 21.8254 71.3788 22.8816 72.0261 24.2481L73.8336 23.3919ZM70.4364 19.396C68.9681 18.3865 67.2443 17.9 65.3098 17.9V19.9C66.8954 19.9 68.2116 20.2935 69.3033 21.044L70.4364 19.396ZM117.926 13.32L117.219 14.0271L117.219 14.0271L117.926 13.32ZM117.926 43.98L118.633 44.6871L118.643 44.677L118.653 44.6666L117.926 43.98ZM112.766 43.98L112.039 44.6666L112.048 44.677L112.059 44.6871L112.766 43.98ZM111.746 38.4L112.124 37.4745L110.746 36.9105V38.4H111.746ZM113.066 38.94H114.066V38.2686L113.444 38.0145L113.066 38.94ZM112.226 40.86L113.015 41.4739L113.023 41.4637L113.031 41.4532L112.226 40.86ZM109.946 43.02L110.546 43.82L110.546 43.82L109.946 43.02ZM106.526 44.88L106.877 45.8163L106.884 45.8134L106.892 45.8104L106.526 44.88ZM94.8256 43.5L94.2848 44.3412L94.2956 44.348L94.8256 43.5ZM89.4856 37.62L88.594 38.0729L88.5984 38.0814L88.6029 38.0898L89.4856 37.62ZM89.4856 20.34L88.5998 19.876L88.597 19.8814L89.4856 20.34ZM94.7656 14.46L95.3025 15.3037L95.3133 15.2967L94.7656 14.46ZM106.826 13.08L106.486 14.0206L106.486 14.0206L106.826 13.08ZM110.546 15.06L109.936 15.8526L109.943 15.8582L109.95 15.8636L110.546 15.06ZM113.006 17.52L112.174 18.0747L112.189 18.0978L112.206 18.12L113.006 17.52ZM113.906 19.56L114.245 20.5006L114.906 20.2621V19.56H113.906ZM111.746 20.34H110.746V21.7643L112.085 21.2806L111.746 20.34ZM112.766 13.38L113.473 14.0871L113.483 14.077L113.493 14.0666L112.766 13.38ZM107.846 37.68L107.291 36.8479L107.291 36.8479L107.846 37.68ZM110.906 34.08L110.011 33.6328L110.006 33.6423L110.002 33.6519L110.906 34.08ZM110.906 23.82L110.002 24.2481L110.006 24.2577L110.011 24.2672L110.906 23.82ZM107.846 20.22L107.291 21.052L107.291 21.052L107.846 20.22ZM98.6656 20.22L99.2203 21.052L99.2203 21.052L98.6656 20.22ZM95.5456 23.82L94.6512 23.3728L94.6464 23.3823L94.6419 23.3919L95.5456 23.82ZM95.5456 34.08L94.6419 34.5081L94.6464 34.5177L94.6512 34.5272L95.5456 34.08ZM98.6656 37.68L99.2203 36.8479L99.2203 36.8479L98.6656 37.68ZM115.346 13.3C116.144 13.3 116.742 13.5509 117.219 14.0271L118.633 12.6129C117.749 11.7291 116.627 11.3 115.346 11.3V13.3ZM117.219 14.0271C117.687 14.4958 117.946 15.1096 117.946 15.96H119.946C119.946 14.6504 119.524 13.5042 118.633 12.6129L117.219 14.0271ZM117.946 15.96V41.34H119.946V15.96H117.946ZM117.946 41.34C117.946 42.1388 117.694 42.769 117.199 43.2934L118.653 44.6666C119.517 43.751 119.946 42.6212 119.946 41.34H117.946ZM117.219 43.2729C116.742 43.7491 116.144 44 115.346 44V46C116.627 46 117.749 45.5709 118.633 44.6871L117.219 43.2729ZM115.346 44C114.547 44 113.949 43.7491 113.473 43.2729L112.059 44.6871C112.942 45.5709 114.064 46 115.346 46V44ZM113.493 43.2934C112.997 42.769 112.746 42.1388 112.746 41.34H110.746C110.746 42.6212 111.174 43.751 112.039 44.6666L113.493 43.2934ZM112.746 41.34V38.4H110.746V41.34H112.746ZM111.367 39.3255L112.687 39.8655L113.444 38.0145L112.124 37.4745L111.367 39.3255ZM112.066 38.94C112.066 39.1328 111.944 39.5561 111.421 40.2668L113.031 41.4532C113.627 40.6439 114.066 39.7872 114.066 38.94H112.066ZM111.436 40.2461C110.945 40.8778 110.255 41.5376 109.346 42.22L110.546 43.82C111.556 43.0624 112.386 42.2822 113.015 41.4739L111.436 40.2461ZM109.346 42.22C108.469 42.8776 107.41 43.4566 106.159 43.9496L106.892 45.8104C108.281 45.2634 109.502 44.6024 110.546 43.82L109.346 42.22ZM106.175 43.9437C105.019 44.3771 103.739 44.6 102.326 44.6V46.6C103.952 46.6 105.473 46.3429 106.877 45.8163L106.175 43.9437ZM102.326 44.6C99.7442 44.6 97.4294 43.9481 95.3556 42.652L94.2956 44.348C96.7019 45.8519 99.387 46.6 102.326 46.6V44.6ZM95.3664 42.6588C93.2782 41.3164 91.6126 39.4878 90.3684 37.1502L88.6029 38.0898C89.9987 40.7122 91.893 42.8036 94.2849 44.3412L95.3664 42.6588ZM90.3772 37.1671C89.1783 34.8067 88.5656 32.0858 88.5656 28.98H86.5656C86.5656 32.3542 87.233 35.3933 88.594 38.0729L90.3772 37.1671ZM88.5656 28.98C88.5656 25.8317 89.1793 23.1139 90.3742 20.7986L88.597 19.8814C87.232 22.5261 86.5656 25.5683 86.5656 28.98H88.5656ZM90.3715 20.804C91.6179 18.4244 93.2632 16.6014 95.3025 15.3037L94.2288 13.6163C91.868 15.1186 89.9933 17.2156 88.5998 19.876L90.3715 20.804ZM95.3133 15.2967C97.3472 13.9654 99.5962 13.3 102.086 13.3V11.3C99.2151 11.3 96.584 12.0746 94.218 13.6233L95.3133 15.2967ZM102.086 13.3C103.704 13.3 105.167 13.5444 106.486 14.0206L107.165 12.1394C105.604 11.5756 103.907 11.3 102.086 11.3V13.3ZM106.486 14.0206C107.845 14.5112 108.99 15.1251 109.936 15.8526L111.155 14.2674C110.021 13.3949 108.687 12.6888 107.165 12.1394L106.486 14.0206ZM109.95 15.8636C110.967 16.6163 111.695 17.3566 112.174 18.0747L113.838 16.9653C113.196 16.0034 112.285 15.1037 111.141 14.2564L109.95 15.8636ZM112.206 18.12C112.766 18.867 112.906 19.3294 112.906 19.56H114.906C114.906 18.6706 114.445 17.773 113.806 16.92L112.206 18.12ZM113.566 18.6194L111.406 19.3994L112.085 21.2806L114.245 20.5006L113.566 18.6194ZM112.746 20.34V15.96H110.746V20.34H112.746ZM112.746 15.96C112.746 15.1614 112.996 14.5634 113.473 14.0871L112.059 12.6729C111.175 13.5566 110.746 14.6786 110.746 15.96H112.746ZM113.493 14.0666C113.973 13.5576 114.565 13.3 115.346 13.3V11.3C114.046 11.3 112.918 11.7624 112.039 12.6934L113.493 14.0666ZM103.226 40C105.161 40 106.898 39.5134 108.4 38.512L107.291 36.8479C106.153 37.6066 104.811 38 103.226 38V40ZM108.4 38.512C109.88 37.5254 111.017 36.1816 111.809 34.5081L110.002 33.6519C109.355 35.0184 108.451 36.0746 107.291 36.8479L108.4 38.512ZM111.8 34.5272C112.637 32.8541 113.046 30.9985 113.046 28.98H111.046C111.046 30.7215 110.695 32.2659 110.011 33.6328L111.8 34.5272ZM113.046 28.98C113.046 26.9251 112.638 25.0487 111.8 23.3728L110.011 24.2672C110.693 25.6313 111.046 27.1949 111.046 28.98H113.046ZM111.809 23.3919C111.017 21.7184 109.88 20.3746 108.4 19.3879L107.291 21.052C108.451 21.8254 109.355 22.8816 110.002 24.2481L111.809 23.3919ZM108.4 19.3879C106.898 18.3866 105.161 17.9 103.226 17.9V19.9C104.811 19.9 106.153 20.2934 107.291 21.052L108.4 19.3879ZM103.226 17.9C101.326 17.9 99.6091 18.3892 98.1109 19.3879L99.2203 21.052C100.362 20.2908 101.686 19.9 103.226 19.9V17.9ZM98.1109 19.3879C96.6358 20.3713 95.4833 21.7086 94.6512 23.3728L96.4401 24.2672C97.128 22.8914 98.0554 21.8286 99.2203 21.052L98.1109 19.3879ZM94.6419 23.3919C93.8501 25.0635 93.4656 26.9329 93.4656 28.98H95.4656C95.4656 27.1871 95.8012 25.6165 96.4494 24.2481L94.6419 23.3919ZM93.4656 28.98C93.4656 30.9905 93.8514 32.8393 94.6419 34.5081L96.4494 33.6519C95.7999 32.2807 95.4656 30.7295 95.4656 28.98H93.4656ZM94.6512 34.5272C95.4833 36.1914 96.6358 37.5287 98.1109 38.512L99.2203 36.8479C98.0554 36.0713 97.128 35.0086 96.4401 33.6328L94.6512 34.5272ZM98.1109 38.512C99.6091 39.5108 101.326 40 103.226 40V38C101.686 38 100.362 37.6092 99.2203 36.8479L98.1109 38.512ZM152.421 14.16L151.789 14.9349L151.799 14.9428L152.421 14.16ZM155.601 19.14L154.636 19.4L154.639 19.4111L154.642 19.4222L155.601 19.14ZM155.481 43.98L156.189 44.6871L156.199 44.677L156.208 44.6666L155.481 43.98ZM150.321 43.98L149.594 44.6666L149.604 44.677L149.614 44.6871L150.321 43.98ZM148.761 22.44L147.803 22.7241L147.809 22.7458L147.816 22.7671L148.761 22.44ZM146.961 19.86L146.373 20.6687L146.373 20.6687L146.961 19.86ZM139.101 19.86L138.605 18.9918L138.598 18.9957L138.592 18.9997L139.101 19.86ZM136.581 22.44L135.707 21.9543L135.701 21.9659L136.581 22.44ZM134.721 43.98L135.429 44.6871L135.439 44.677L135.448 44.6666L134.721 43.98ZM129.561 43.98L128.834 44.6666L128.844 44.677L128.854 44.6871L129.561 43.98ZM129.561 13.98L130.269 14.6871L130.279 14.677L130.288 14.6666L129.561 13.98ZM134.721 13.98L133.994 14.6666L134.004 14.677L134.014 14.6871L134.721 13.98ZM135.741 19.14L135.545 20.1206L136.741 20.3598V19.14H135.741ZM134.841 18.96L133.958 18.4921L133.33 19.6775L134.645 19.9406L134.841 18.96ZM136.401 16.8L137.147 17.4668L137.155 17.4573L137.163 17.4476L136.401 16.8ZM138.801 14.58L139.396 15.3842L139.396 15.3842L138.801 14.58ZM141.921 12.96L142.247 13.9054L142.262 13.9004L142.276 13.895L141.921 12.96ZM145.701 13.3C148.543 13.3 150.519 13.8984 151.789 14.9349L153.054 13.3851C151.284 11.9416 148.779 11.3 145.701 11.3V13.3ZM151.799 14.9428C153.178 16.0388 154.127 17.5088 154.636 19.4L156.567 18.88C155.956 16.6112 154.785 14.7612 153.044 13.3772L151.799 14.9428ZM154.642 19.4222C155.211 21.3554 155.501 23.5384 155.501 25.98H157.501C157.501 23.3816 157.192 21.0046 156.561 18.8578L154.642 19.4222ZM155.501 25.98V41.34H157.501V25.98H155.501ZM155.501 41.34C155.501 42.1388 155.25 42.769 154.754 43.2934L156.208 44.6666C157.073 43.751 157.501 42.6212 157.501 41.34H155.501ZM154.774 43.2729C154.298 43.7491 153.7 44 152.901 44V46C154.183 46 155.305 45.5709 156.189 44.6871L154.774 43.2729ZM152.901 44C152.103 44 151.505 43.7491 151.029 43.2729L149.614 44.6871C150.498 45.5709 151.62 46 152.901 46V44ZM151.048 43.2934C150.553 42.769 150.301 42.1388 150.301 41.34H148.301C148.301 42.6212 148.73 43.751 149.594 44.6666L151.048 43.2934ZM150.301 41.34V25.98H148.301V41.34H150.301ZM150.301 25.98C150.301 24.5702 150.109 23.2767 149.706 22.1129L147.816 22.7671C148.134 23.6833 148.301 24.7498 148.301 25.98H150.301ZM149.72 22.1559C149.34 20.873 148.614 19.8254 147.55 19.0513L146.373 20.6687C147.069 21.1746 147.543 21.847 147.803 22.7241L149.72 22.1559ZM147.55 19.0513C146.432 18.2383 144.931 17.9 143.181 17.9V19.9C144.711 19.9 145.731 20.2017 146.373 20.6687L147.55 19.0513ZM143.181 17.9C141.449 17.9 139.909 18.247 138.605 18.9918L139.598 20.7282C140.534 20.193 141.714 19.9 143.181 19.9V17.9ZM138.592 18.9997C137.362 19.7286 136.395 20.7168 135.707 21.9544L137.456 22.9256C137.968 22.0032 138.681 21.2714 139.611 20.7203L138.592 18.9997ZM135.701 21.9659C135.054 23.1681 134.741 24.5143 134.741 25.98H136.741C136.741 24.8057 136.989 23.7919 137.462 22.9141L135.701 21.9659ZM134.741 25.98V41.34H136.741V25.98H134.741ZM134.741 41.34C134.741 42.1388 134.49 42.769 133.994 43.2934L135.448 44.6666C136.313 43.751 136.741 42.6212 136.741 41.34H134.741ZM134.014 43.2729C133.538 43.7491 132.94 44 132.141 44V46C133.423 46 134.545 45.5709 135.429 44.6871L134.014 43.2729ZM132.141 44C131.343 44 130.745 43.7491 130.269 43.2729L128.854 44.6871C129.738 45.5709 130.86 46 132.141 46V44ZM130.288 43.2934C129.793 42.769 129.541 42.1388 129.541 41.34H127.541C127.541 42.6212 127.97 43.751 128.834 44.6666L130.288 43.2934ZM129.541 41.34V16.56H127.541V41.34H129.541ZM129.541 16.56C129.541 15.7614 129.792 15.1634 130.269 14.6871L128.854 13.2729C127.971 14.1566 127.541 15.2786 127.541 16.56H129.541ZM130.288 14.6666C130.769 14.1576 131.361 13.9 132.141 13.9V11.9C130.842 11.9 129.714 12.3624 128.834 13.2934L130.288 14.6666ZM132.141 13.9C132.922 13.9 133.514 14.1576 133.994 14.6666L135.448 13.2934C134.569 12.3624 133.441 11.9 132.141 11.9V13.9ZM134.014 14.6871C134.491 15.1634 134.741 15.7614 134.741 16.56H136.741C136.741 15.2786 136.312 14.1566 135.429 13.2729L134.014 14.6871ZM134.741 16.56V19.14H136.741V16.56H134.741ZM135.938 18.1594L135.038 17.9794L134.645 19.9406L135.545 20.1206L135.938 18.1594ZM135.725 19.4279C136.037 18.8384 136.504 18.1847 137.147 17.4668L135.656 16.1332C134.938 16.9353 134.366 17.7216 133.958 18.4921L135.725 19.4279ZM137.163 17.4476C137.789 16.711 138.532 16.0226 139.396 15.3842L138.207 13.7758C137.231 14.4974 136.373 15.289 135.639 16.1523L137.163 17.4476ZM139.396 15.3842C140.228 14.7688 141.177 14.2746 142.247 13.9054L141.595 12.0146C140.346 12.4454 139.215 13.0312 138.207 13.7758L139.396 15.3842ZM142.276 13.895C143.312 13.5019 144.451 13.3 145.701 13.3V11.3C144.232 11.3 142.85 11.5381 141.567 12.025L142.276 13.895ZM171.844 43.98L172.551 44.6871L172.561 44.677L172.571 44.6666L171.844 43.98ZM166.684 43.98L165.957 44.6666L165.966 44.677L165.976 44.6871L166.684 43.98ZM166.684 13.98L167.391 14.6871L167.401 14.677L167.411 14.6666L166.684 13.98ZM171.844 13.98L171.117 14.6666L171.126 14.677L171.136 14.6871L171.844 13.98ZM166.324 8.34L165.706 9.12632L165.706 9.12632L166.324 8.34ZM166.384 2.52L166.938 3.35205L166.944 3.34809L166.95 3.34404L166.384 2.52ZM172.204 2.52L171.586 3.30632L171.586 3.30632L172.204 2.52ZM172.144 8.4L172.698 9.23205L172.717 9.21964L172.735 9.2064L172.144 8.4ZM171.864 41.34C171.864 42.1388 171.612 42.769 171.117 43.2934L172.571 44.6666C173.435 43.751 173.864 42.6212 173.864 41.34H171.864ZM171.136 43.2729C170.66 43.7491 170.062 44 169.264 44V46C170.545 46 171.667 45.5709 172.551 44.6871L171.136 43.2729ZM169.264 44C168.465 44 167.867 43.7491 167.391 43.2729L165.976 44.6871C166.86 45.5709 167.982 46 169.264 46V44ZM167.411 43.2934C166.915 42.769 166.664 42.1388 166.664 41.34H164.664C164.664 42.6212 165.092 43.751 165.957 44.6666L167.411 43.2934ZM166.664 41.34V16.56H164.664V41.34H166.664ZM166.664 16.56C166.664 15.7614 166.914 15.1634 167.391 14.6871L165.976 13.2729C165.093 14.1566 164.664 15.2786 164.664 16.56H166.664ZM167.411 14.6666C167.891 14.1576 168.483 13.9 169.264 13.9V11.9C167.964 11.9 166.836 12.3624 165.957 13.2934L167.411 14.6666ZM169.264 13.9C170.044 13.9 170.636 14.1576 171.117 14.6666L172.571 13.2934C171.691 12.3624 170.563 11.9 169.264 11.9V13.9ZM171.136 14.6871C171.613 15.1634 171.864 15.7614 171.864 16.56H173.864C173.864 15.2786 173.434 14.1566 172.551 13.2729L171.136 14.6871ZM171.864 16.56V41.34H173.864V16.56H171.864ZM169.204 8C167.892 8 167.225 7.77615 166.941 7.55368L165.706 9.12632C166.543 9.78385 167.795 10 169.204 10V8ZM166.941 7.55368C166.734 7.39085 166.484 6.99028 166.484 6H164.484C164.484 7.24971 164.793 8.40915 165.706 9.12632L166.941 7.55368ZM166.484 6V4.86H164.484V6H166.484ZM166.484 4.86C166.484 3.8252 166.754 3.47472 166.938 3.35205L165.829 1.68795C164.813 2.36527 164.484 3.5748 164.484 4.86H166.484ZM166.95 3.34404C167.347 3.07127 168.067 2.86 169.264 2.86V0.859998C167.9 0.859998 166.7 1.08873 165.817 1.69596L166.95 3.34404ZM169.264 2.86C170.623 2.86 171.306 3.08647 171.586 3.30632L172.821 1.73368C171.981 1.07353 170.704 0.859998 169.264 0.859998V2.86ZM171.586 3.30632C171.793 3.46915 172.044 3.86971 172.044 4.86H174.044C174.044 3.61028 173.734 2.45085 172.821 1.73368L171.586 3.30632ZM172.044 4.86V6H174.044V4.86H172.044ZM172.044 6C172.044 7.02383 171.777 7.42864 171.552 7.5936L172.735 9.2064C173.71 8.49136 174.044 7.29616 174.044 6H172.044ZM171.589 7.56795C171.244 7.79787 170.515 8 169.204 8V10C170.612 10 171.843 9.80213 172.698 9.23205L171.589 7.56795ZM188.843 51.48L187.962 51.0072L187.957 51.016L188.843 51.48ZM177.923 55.74L178.673 55.0784L178.652 55.055L178.63 55.0329L177.923 55.74ZM177.863 50.64L178.518 51.3957L178.531 51.3845L178.544 51.3728L177.863 50.64ZM180.023 49.44L180.327 50.393L180.34 50.3887L180.023 49.44ZM182.063 48.06L181.25 47.4788L181.24 47.4919L181.231 47.5053L182.063 48.06ZM182.783 46.02L181.794 45.8717L181.791 45.896L181.788 45.9205L182.783 46.02ZM183.983 13.98L184.69 14.6871L184.7 14.677L184.71 14.6666L183.983 13.98ZM189.143 13.98L188.416 14.6666L188.426 14.677L188.436 14.6871L189.143 13.98ZM183.563 8.34L182.945 9.12632L182.945 9.12632L183.563 8.34ZM183.623 2.52L184.178 3.35205L184.184 3.34809L184.19 3.34404L183.623 2.52ZM189.443 2.52L188.825 3.30632L188.825 3.30632L189.443 2.52ZM189.383 8.4L189.938 9.23205L189.957 9.21964L189.975 9.2064L189.383 8.4ZM189.163 45.6C189.163 47.7517 188.748 49.5418 187.962 51.0072L189.724 51.9528C190.698 50.1382 191.163 48.0083 191.163 45.6H189.163ZM187.957 51.016C187.153 52.5523 186.091 53.7131 184.775 54.5307L185.831 56.2293C187.476 55.2069 188.774 53.7677 189.729 51.944L187.957 51.016ZM184.775 54.5307C183.463 55.3466 181.988 55.76 180.323 55.76V57.76C182.339 57.76 184.184 57.2534 185.831 56.2293L184.775 54.5307ZM180.323 55.76C179.577 55.76 179.062 55.5197 178.673 55.0784L177.173 56.4016C177.984 57.3203 179.069 57.76 180.323 57.76V55.76ZM178.63 55.0329C178.181 54.5839 177.963 54.0597 177.963 53.4H175.963C175.963 54.5803 176.385 55.6161 177.216 56.4471L178.63 55.0329ZM177.963 53.4V52.74H175.963V53.4H177.963ZM177.963 52.74C177.963 52.1147 178.163 51.7038 178.518 51.3957L177.208 49.8843C176.364 50.6162 175.963 51.6053 175.963 52.74H177.963ZM178.544 51.3728C178.976 50.9718 179.558 50.6374 180.326 50.3929L179.72 48.4871C178.728 48.8026 177.871 49.2682 177.183 49.9072L178.544 51.3728ZM180.34 50.3887C181.427 50.0261 182.331 49.4615 182.895 48.6147L181.231 47.5053C180.996 47.8585 180.539 48.2139 179.707 48.4913L180.34 50.3887ZM182.877 48.6412C183.394 47.9169 183.684 47.0637 183.778 46.1195L181.788 45.9205C181.723 46.5763 181.532 47.0831 181.25 47.4788L182.877 48.6412ZM183.772 46.1683C183.9 45.3152 183.963 44.4254 183.963 43.5H181.963C181.963 44.3346 181.906 45.1248 181.794 45.8717L183.772 46.1683ZM183.963 43.5V16.56H181.963V43.5H183.963ZM183.963 16.56C183.963 15.7614 184.214 15.1634 184.69 14.6871L183.276 13.2729C182.392 14.1566 181.963 15.2786 181.963 16.56H183.963ZM184.71 14.6666C185.191 14.1576 185.783 13.9 186.563 13.9V11.9C185.264 11.9 184.136 12.3624 183.256 13.2934L184.71 14.6666ZM186.563 13.9C187.344 13.9 187.936 14.1576 188.416 14.6666L189.87 13.2934C188.991 12.3624 187.863 11.9 186.563 11.9V13.9ZM188.436 14.6871C188.912 15.1634 189.163 15.7614 189.163 16.56H191.163C191.163 15.2786 190.734 14.1566 189.85 13.2729L188.436 14.6871ZM189.163 16.56V45.6H191.163V16.56H189.163ZM186.443 8C185.132 8 184.464 7.77615 184.181 7.55368L182.945 9.12632C183.782 9.78385 185.035 10 186.443 10V8ZM184.181 7.55368C183.974 7.39085 183.723 6.99028 183.723 6H181.723C181.723 7.24971 182.033 8.40915 182.945 9.12632L184.181 7.55368ZM183.723 6V4.86H181.723V6H183.723ZM183.723 4.86C183.723 3.8252 183.994 3.47472 184.178 3.35205L183.069 1.68795C182.053 2.36527 181.723 3.5748 181.723 4.86H183.723ZM184.19 3.34404C184.587 3.07127 185.307 2.86 186.503 2.86V0.859998C185.14 0.859998 183.94 1.08873 183.057 1.69596L184.19 3.34404ZM186.503 2.86C187.863 2.86 188.546 3.08647 188.825 3.30632L190.061 1.73368C189.221 1.07353 187.944 0.859998 186.503 0.859998V2.86ZM188.825 3.30632C189.033 3.46915 189.283 3.86971 189.283 4.86H191.283C191.283 3.61028 190.974 2.45085 190.061 1.73368L188.825 3.30632ZM189.283 4.86V6H191.283V4.86H189.283ZM189.283 6C189.283 7.02383 189.017 7.42864 188.792 7.5936L189.975 9.2064C190.95 8.49136 191.283 7.29616 191.283 6H189.283ZM188.829 7.56795C188.484 7.79787 187.755 8 186.443 8V10C187.852 10 189.083 9.80213 189.938 9.23205L188.829 7.56795ZM206.627 43.5L206.125 44.3648L206.133 44.3696L206.141 44.3742L206.627 43.5ZM200.867 37.68L199.987 38.1559L199.993 38.1669L200.867 37.68ZM201.047 20.22L200.181 19.7195L200.178 19.7239L201.047 20.22ZM206.807 14.34L206.307 13.4736L206.307 13.4736L206.807 14.34ZM220.067 13.56L219.644 14.4662L219.651 14.4697L220.067 13.56ZM224.927 17.04L224.2 17.7273L224.21 17.7371L224.927 17.04ZM228.227 22.08L227.304 22.4646L227.307 22.4727L227.311 22.4808L228.227 22.08ZM229.487 28.2L230.486 28.2416L230.487 28.2208V28.2H229.487ZM228.347 30.54L227.707 29.7718L228.347 30.54ZM202.907 31.44L201.949 31.7273L202.163 32.44H202.907V31.44ZM201.107 25.44V24.44H199.763L200.149 25.7273L201.107 25.44ZM223.127 25.44L223.799 26.1799L225.713 24.44H223.127V25.44ZM221.807 26.64H220.807V28.9005L222.479 27.3799L221.807 26.64ZM221.807 25.02H222.807V24.9856L222.804 24.9512L221.807 25.02ZM220.547 21.9L219.759 22.5163L219.767 22.5267L219.776 22.5369L220.547 21.9ZM217.787 19.74L217.326 20.6278L217.346 20.6378L217.366 20.647L217.787 19.74ZM210.947 19.38L211.241 20.3358L211.241 20.3358L210.947 19.38ZM208.247 21L208.954 21.7071L208.954 21.7071L208.247 21ZM206.447 24.06L207.392 24.3851L207.392 24.3851L206.447 24.06ZM207.107 34.44L206.241 34.941L206.249 34.9546L206.257 34.9679L207.107 34.44ZM210.587 37.86L210.091 38.7282L210.105 38.7366L210.12 38.7444L210.587 37.86ZM218.687 38.64L218.424 37.6752L218.424 37.6752L218.687 38.64ZM220.787 37.8L221.311 38.6517L221.319 38.6465L221.327 38.6412L220.787 37.8ZM222.287 36.9L221.84 36.0056L221.824 36.0136L221.808 36.0221L222.287 36.9ZM226.487 37.26L225.756 37.9423L225.767 37.9549L225.78 37.9671L226.487 37.26ZM225.707 42.3L225.089 41.5137L225.075 41.5249L225.061 41.5366L225.707 42.3ZM221.327 44.64L221.649 45.5866L221.658 45.5836L221.667 45.5804L221.327 44.64ZM215.507 44.6C212.246 44.6 209.459 43.9296 207.112 42.6258L206.141 44.3742C208.834 45.8704 211.967 46.6 215.507 46.6V44.6ZM207.129 42.6352C204.8 41.283 203.01 39.4717 201.74 37.1931L199.993 38.1669C201.443 40.7683 203.493 42.837 206.125 44.3648L207.129 42.6352ZM201.746 37.2042C200.514 34.9259 199.887 32.3325 199.887 29.4H197.887C197.887 32.6275 198.58 35.5541 199.987 38.1558L201.746 37.2042ZM199.887 29.4C199.887 25.9326 200.58 23.0528 201.915 20.7161L200.178 19.7239C198.634 22.4272 197.887 25.6674 197.887 29.4H199.887ZM201.912 20.7205C203.312 18.2991 205.111 16.4713 207.306 15.2064L206.307 13.4736C203.782 14.9287 201.741 17.0209 200.181 19.7195L201.912 20.7205ZM207.306 15.2064C209.519 13.931 211.848 13.3 214.307 13.3V11.3C211.486 11.3 208.814 12.029 206.307 13.4736L207.306 15.2064ZM214.307 13.3C216.205 13.3 217.98 13.6897 219.644 14.4662L220.49 12.6538C218.554 11.7503 216.489 11.3 214.307 11.3V13.3ZM219.651 14.4697C221.373 15.2558 222.888 16.34 224.2 17.7272L225.653 16.3528C224.165 14.78 222.44 13.5442 220.482 12.6503L219.651 14.4697ZM224.21 17.7371C225.519 19.0836 226.55 20.6566 227.304 22.4646L229.15 21.6954C228.303 19.6634 227.135 17.8764 225.644 16.3429L224.21 17.7371ZM227.311 22.4808C228.094 24.2705 228.487 26.1736 228.487 28.2H230.487C230.487 25.9064 230.04 23.7295 229.143 21.6792L227.311 22.4808ZM228.488 28.1584C228.459 28.8445 228.204 29.3576 227.707 29.7718L228.987 31.3082C229.93 30.5224 230.434 29.4755 230.486 28.2416L228.488 28.1584ZM227.707 29.7718C227.171 30.2181 226.559 30.44 225.827 30.44V32.44C227.014 32.44 228.082 32.0619 228.987 31.3082L227.707 29.7718ZM225.827 30.44H202.907V32.44H225.827V30.44ZM203.865 31.1527L202.065 25.1527L200.149 25.7273L201.949 31.7273L203.865 31.1527ZM201.107 26.44H223.127V24.44H201.107V26.44ZM222.454 24.7001L221.134 25.9001L222.479 27.3799L223.799 26.1799L222.454 24.7001ZM222.807 26.64V25.02H220.807V26.64H222.807ZM222.804 24.9512C222.71 23.577 222.207 22.3396 221.318 21.2631L219.776 22.5369C220.406 23.3004 220.744 24.143 220.809 25.0888L222.804 24.9512ZM221.334 21.2837C220.511 20.2321 219.463 19.4157 218.208 18.833L217.366 20.647C218.351 21.1043 219.142 21.7279 219.759 22.5163L221.334 21.2837ZM218.247 18.8522C217.022 18.217 215.704 17.9 214.307 17.9V19.9C215.39 19.9 216.391 20.143 217.326 20.6278L218.247 18.8522ZM214.307 17.9C213.017 17.9 211.797 18.0721 210.653 18.4242L211.241 20.3358C212.176 20.0479 213.196 19.9 214.307 19.9V17.9ZM210.653 18.4242C209.459 18.7916 208.416 19.4161 207.54 20.2929L208.954 21.7071C209.597 21.0639 210.355 20.6084 211.241 20.3358L210.653 18.4242ZM207.54 20.2929C206.648 21.1846 205.978 22.3474 205.501 23.7349L207.392 24.3851C207.795 23.2126 208.326 22.3354 208.954 21.7071L207.54 20.2929ZM205.501 23.7349C205.013 25.155 204.787 26.8945 204.787 28.92H206.787C206.787 27.0255 207.001 25.525 207.392 24.3851L205.501 23.7349ZM204.787 28.92C204.787 31.2158 205.255 33.2374 206.241 34.941L207.972 33.939C207.198 32.6026 206.787 30.9442 206.787 28.92H204.787ZM206.257 34.9679C207.258 36.5772 208.535 37.8393 210.091 38.7282L211.083 36.9918C209.838 36.2807 208.796 35.2628 207.956 33.9121L206.257 34.9679ZM210.12 38.7444C211.701 39.5789 213.381 40 215.147 40V38C213.712 38 212.352 37.6611 211.053 36.9756L210.12 38.7444ZM215.147 40C216.668 40 217.948 39.8781 218.95 39.6048L218.424 37.6752C217.666 37.8819 216.586 38 215.147 38V40ZM218.95 39.6048C219.881 39.3508 220.68 39.0397 221.311 38.6517L220.263 36.9483C219.853 37.2003 219.252 37.4492 218.424 37.6752L218.95 39.6048ZM221.327 38.6412C221.873 38.2902 222.352 38.0034 222.766 37.7779L221.808 36.0221C221.341 36.2766 220.82 36.5898 220.246 36.9588L221.327 38.6412ZM222.734 37.7944C223.35 37.4864 223.877 37.36 224.327 37.36V35.36C223.497 35.36 222.663 35.5936 221.84 36.0056L222.734 37.7944ZM224.327 37.36C224.952 37.36 225.4 37.5608 225.756 37.9423L227.218 36.5777C226.454 35.7592 225.462 35.36 224.327 35.36V37.36ZM225.78 37.9671C226.205 38.3922 226.387 38.8426 226.387 39.36H228.387C228.387 38.2774 227.969 37.3278 227.194 36.5529L225.78 37.9671ZM226.387 39.36C226.387 40.0411 226.051 40.758 225.089 41.5137L226.325 43.0863C227.603 42.082 228.387 40.8389 228.387 39.36H226.387ZM225.061 41.5366C224.143 42.313 222.802 43.0429 220.987 43.6996L221.667 45.5804C223.611 44.8771 225.19 44.047 226.353 43.0634L225.061 41.5366ZM221.004 43.6934C219.229 44.2978 217.398 44.6 215.507 44.6V46.6C217.616 46.6 219.664 46.2622 221.649 45.5866L221.004 43.6934ZM235.717 40.02L234.904 40.6012L234.91 40.6107L234.917 40.62L235.717 40.02ZM236.737 35.58L236.207 34.732L236.198 34.7377L236.737 35.58ZM238.777 35.1L238.667 36.0939L238.694 36.0969L238.722 36.0985L238.777 35.1ZM240.877 36.18L240.17 36.8871L240.17 36.8871L240.877 36.18ZM249.337 39.84V40.84H249.371L249.404 40.8378L249.337 39.84ZM251.317 39.6L251.482 40.5864L251.508 40.582L251.534 40.5762L251.317 39.6ZM253.177 38.64L253.856 39.3748L253.858 39.3728L253.177 38.64ZM253.117 34.2L252.462 34.9557L252.462 34.9557L253.117 34.2ZM250.717 32.88L250.366 33.8164L250.379 33.8209L250.717 32.88ZM247.477 31.86L247.199 32.8203L247.209 32.8234L247.22 32.8262L247.477 31.86ZM243.637 30.66L243.312 31.6057L243.321 31.6087L243.637 30.66ZM240.097 28.98L239.543 29.812L239.554 29.8193L239.565 29.8262L240.097 28.98ZM237.457 26.16L236.595 26.6657L236.595 26.6657L237.457 26.16ZM238.117 16.68L237.336 16.0553L237.336 16.0553L238.117 16.68ZM242.437 13.44L242.048 12.5187L242.041 12.5219L242.437 13.44ZM251.977 12.78L251.748 13.7534L251.762 13.7566L251.776 13.7595L251.977 12.78ZM255.877 14.22L255.397 15.0968L255.408 15.1029L255.419 15.1086L255.877 14.22ZM258.997 16.8L259.804 16.2086L259.795 16.1972L259.787 16.1861L258.997 16.8ZM259.777 18.96L260.773 18.8652L260.773 18.8652L259.777 18.96ZM258.637 21.24L259.262 22.0209L259.267 22.0172L258.637 21.24ZM256.537 21.9L256.438 22.895L256.463 22.8975L256.487 22.8988L256.537 21.9ZM254.557 21.06L253.766 21.6714L253.817 21.7379L253.879 21.7948L254.557 21.06ZM251.797 18.96L251.376 19.8671L251.388 19.8725L251.797 18.96ZM245.917 18.42L246.091 19.4048L246.113 19.401L246.134 19.3962L245.917 18.42ZM244.117 19.32L244.763 20.0834L244.78 20.0694L244.796 20.0548L244.117 19.32ZM244.237 23.7L243.555 24.4311L243.569 24.4436L243.582 24.4557L244.237 23.7ZM246.637 25.02L246.299 25.9609L246.321 25.9689L246.343 25.9758L246.637 25.02ZM249.937 25.98L249.671 26.944L249.68 26.9462L249.937 25.98ZM257.017 28.86L257.587 28.0378L257.587 28.0378L257.017 28.86ZM259.537 31.68L258.662 32.1631L258.665 32.1696L258.669 32.1761L259.537 31.68ZM258.697 41.22L259.466 41.8602L259.466 41.8602L258.697 41.22ZM254.197 44.52L254.569 45.4485L254.578 45.4449L254.586 45.4412L254.197 44.52ZM241.597 44.4L241.262 45.3421L241.269 45.3446L241.276 45.3471L241.597 44.4ZM236.531 39.4388C236.294 39.1067 236.144 38.6251 236.176 37.9054L234.178 37.8146C234.131 38.8549 234.341 39.8133 234.904 40.6012L236.531 39.4388ZM236.176 37.9054C236.197 37.4563 236.446 36.9537 237.276 36.4223L236.198 34.7377C235.029 35.4863 234.238 36.5037 234.178 37.8146L236.176 37.9054ZM237.267 36.428C237.725 36.142 238.181 36.0398 238.667 36.0939L238.888 34.1061C237.934 34.0001 237.03 34.218 236.207 34.732L237.267 36.428ZM238.722 36.0985C239.124 36.1208 239.605 36.3221 240.17 36.8871L241.584 35.4729C240.789 34.6779 239.871 34.1592 238.833 34.1015L238.722 36.0985ZM240.17 36.8871C241.395 38.1122 242.701 39.0799 244.09 39.7744L244.985 37.9856C243.814 37.4001 242.679 36.5678 241.584 35.4729L240.17 36.8871ZM244.09 39.7744C245.548 40.5034 247.313 40.84 249.337 40.84V38.84C247.522 38.84 246.087 38.5366 244.985 37.9856L244.09 39.7744ZM249.404 40.8378C250.043 40.7952 250.736 40.7107 251.482 40.5864L251.153 38.6136C250.459 38.7293 249.832 38.8048 249.271 38.8422L249.404 40.8378ZM251.534 40.5762C252.419 40.3796 253.2 39.9798 253.856 39.3748L252.499 37.9052C252.114 38.2602 251.656 38.5004 251.1 38.6238L251.534 40.5762ZM253.858 39.3728C254.687 38.6028 255.017 37.5139 255.017 36.3H253.017C253.017 37.1661 252.788 37.6372 252.497 37.9072L253.858 39.3728ZM255.017 36.3C255.017 35.1653 254.617 34.1762 253.772 33.4443L252.462 34.9557C252.818 35.2638 253.017 35.6747 253.017 36.3H255.017ZM253.772 33.4443C253.054 32.8214 252.135 32.3276 251.056 31.9391L250.379 33.8209C251.3 34.1524 251.981 34.5386 252.462 34.9557L253.772 33.4443ZM251.068 31.9437C250.072 31.5701 248.96 31.2205 247.735 30.8938L247.22 32.8262C248.394 33.1395 249.442 33.4699 250.366 33.8163L251.068 31.9437ZM247.756 30.8997C246.53 30.5436 245.262 30.1475 243.954 29.7113L243.321 31.6087C244.653 32.0525 245.945 32.4564 247.199 32.8203L247.756 30.8997ZM243.962 29.7143C242.751 29.2978 241.641 28.7703 240.63 28.1338L239.565 29.8262C240.714 30.5497 241.964 31.1422 243.312 31.6057L243.962 29.7143ZM240.652 28.1479C239.703 27.515 238.926 26.6884 238.32 25.6543L236.595 26.6657C237.348 27.9516 238.332 29.005 239.543 29.812L240.652 28.1479ZM238.32 25.6543C237.754 24.688 237.437 23.4157 237.437 21.78H235.437C235.437 23.6643 235.801 25.312 236.595 26.6657L238.32 25.6543ZM237.437 21.78C237.437 19.9793 237.937 18.5068 238.898 17.3047L237.336 16.0553C236.058 17.6532 235.437 19.5807 235.437 21.78H237.437ZM238.898 17.3047C239.909 16.0413 241.213 15.0578 242.834 14.3581L242.041 12.5219C240.141 13.3422 238.566 14.5187 237.336 16.0553L238.898 17.3047ZM242.826 14.3612C244.503 13.6534 246.251 13.3 248.077 13.3V11.3C245.984 11.3 243.972 11.7066 242.048 12.5187L242.826 14.3612ZM248.077 13.3C249.231 13.3 250.454 13.4489 251.748 13.7534L252.206 11.8066C250.781 11.4711 249.403 11.3 248.077 11.3V13.3ZM251.776 13.7595C253.036 14.019 254.242 14.4639 255.397 15.0968L256.358 13.3432C255.032 12.6161 253.638 12.101 252.179 11.8005L251.776 13.7595ZM255.419 15.1086C256.533 15.6835 257.459 16.4507 258.208 17.4139L259.787 16.1861C258.856 14.9893 257.702 14.0365 256.336 13.3314L255.419 15.1086ZM258.191 17.3914C258.511 17.8272 258.717 18.3698 258.782 19.0548L260.773 18.8652C260.678 17.8702 260.364 16.9728 259.804 16.2086L258.191 17.3914ZM258.782 19.0548C258.821 19.4679 258.67 19.927 258.008 20.4628L259.267 22.0172C260.285 21.193 260.894 20.1321 260.773 18.8652L258.782 19.0548ZM258.013 20.4591C257.612 20.7796 257.155 20.9296 256.587 20.9012L256.487 22.8988C257.52 22.9504 258.463 22.6604 259.262 22.0209L258.013 20.4591ZM256.637 20.905C256.022 20.8435 255.575 20.6382 255.236 20.3252L253.879 21.7948C254.58 22.4418 255.453 22.7965 256.438 22.895L256.637 20.905ZM255.349 20.4486C254.554 19.4207 253.495 18.6251 252.206 18.0475L251.388 19.8725C252.42 20.3349 253.2 20.9393 253.766 21.6714L255.349 20.4486ZM252.218 18.053C250.943 17.4608 249.494 17.18 247.897 17.18V19.18C249.26 19.18 250.412 19.4192 251.376 19.867L252.218 18.053ZM247.897 17.18C247.21 17.18 246.476 17.2714 245.7 17.4438L246.134 19.3962C246.799 19.2486 247.385 19.18 247.897 19.18V17.18ZM245.744 17.4352C244.87 17.5894 244.096 17.9787 243.439 18.5852L244.796 20.0548C245.179 19.7013 245.605 19.4906 246.091 19.4048L245.744 17.4352ZM243.471 18.5566C242.638 19.2619 242.337 20.3268 242.337 21.48H244.337C244.337 20.6332 244.557 20.2581 244.763 20.0834L243.471 18.5566ZM242.337 21.48C242.337 22.6401 242.727 23.6581 243.555 24.4311L244.92 22.9689C244.548 22.6219 244.337 22.1599 244.337 21.48H242.337ZM243.582 24.4557C244.301 25.0786 245.22 25.5724 246.299 25.9609L246.976 24.0791C246.055 23.7476 245.374 23.3614 244.892 22.9443L243.582 24.4557ZM246.343 25.9758C247.394 26.2989 248.503 26.6217 249.671 26.944L250.203 25.016C249.052 24.6983 247.961 24.3811 246.931 24.0642L246.343 25.9758ZM249.68 26.9462C250.852 27.2589 252.047 27.6309 253.263 28.0624L253.932 26.1776C252.668 25.7291 251.422 25.3411 250.195 25.0138L249.68 26.9462ZM253.263 28.0624C254.423 28.4741 255.484 29.0145 256.448 29.6822L257.587 28.0378C256.471 27.2655 255.252 26.6459 253.932 26.1776L253.263 28.0624ZM256.448 29.6822C257.355 30.3101 258.093 31.1317 258.662 32.1631L260.413 31.1969C259.702 29.9083 258.76 28.8499 257.587 28.0378L256.448 29.6822ZM258.669 32.1761C259.197 33.0998 259.497 34.3533 259.497 36H261.497C261.497 34.1267 261.158 32.5002 260.406 31.1839L258.669 32.1761ZM259.497 36C259.497 37.8282 258.966 39.3359 257.929 40.5798L259.466 41.8602C260.829 40.2241 261.497 38.2518 261.497 36H259.497ZM257.929 40.5798C256.836 41.8919 255.468 42.8981 253.808 43.5988L254.586 45.4412C256.527 44.6219 258.159 43.4281 259.466 41.8602L257.929 40.5798ZM253.826 43.5915C252.14 44.2658 250.426 44.6 248.677 44.6V46.6C250.689 46.6 252.654 46.2142 254.569 45.4485L253.826 43.5915ZM248.677 44.6C246.433 44.6 244.181 44.2199 241.918 43.4529L241.276 45.3471C243.734 46.1801 246.202 46.6 248.677 46.6V44.6ZM241.933 43.4579C239.765 42.6864 237.964 41.3491 236.517 39.42L234.917 40.62C236.591 42.8509 238.71 44.4336 241.262 45.3421L241.933 43.4579ZM294.723 13.98L293.996 14.6666L294.005 14.677L294.016 14.6871L294.723 13.98ZM292.203 41.88L292.927 42.5694L292.927 42.5694L292.203 41.88ZM271.803 41.88L271.072 42.5632L271.078 42.5694L271.803 41.88ZM269.343 13.98L270.05 14.6871L270.06 14.677L270.07 14.6666L269.343 13.98ZM274.503 13.98L273.776 14.6666L273.785 14.677L273.796 14.6871L274.503 13.98ZM277.143 37.26L276.399 37.929L276.405 37.9352L276.411 37.9414L277.143 37.26ZM286.923 37.26L287.655 37.9414L287.66 37.9352L287.666 37.929L286.923 37.26ZM289.563 13.98L290.27 14.6871L290.28 14.677L290.29 14.6666L289.563 13.98ZM292.143 13.9C292.923 13.9 293.515 14.1576 293.996 14.6666L295.45 13.2934C294.57 12.3624 293.442 11.9 292.143 11.9V13.9ZM294.016 14.6871C294.492 15.1634 294.743 15.7614 294.743 16.56H296.743C296.743 15.2786 296.314 14.1566 295.43 13.2729L294.016 14.6871ZM294.743 16.56V31.8H296.743V16.56H294.743ZM294.743 31.8C294.743 35.8477 293.621 38.9385 291.478 41.1906L292.927 42.5694C295.504 39.8615 296.743 36.2323 296.743 31.8H294.743ZM291.478 41.1906C289.359 43.4179 286.254 44.6 282.003 44.6V46.6C286.631 46.6 290.327 45.3021 292.927 42.5694L291.478 41.1906ZM282.003 44.6C277.751 44.6 274.647 43.4179 272.527 41.1906L271.078 42.5694C273.679 45.3021 277.374 46.6 282.003 46.6V44.6ZM272.533 41.1968C270.427 38.9452 269.323 35.8523 269.323 31.8H267.323C267.323 36.2277 268.539 39.8548 271.072 42.5632L272.533 41.1968ZM269.323 31.8V16.56H267.323V31.8H269.323ZM269.323 16.56C269.323 15.7614 269.574 15.1634 270.05 14.6871L268.636 13.2729C267.752 14.1566 267.323 15.2786 267.323 16.56H269.323ZM270.07 14.6666C270.55 14.1576 271.142 13.9 271.923 13.9V11.9C270.623 11.9 269.495 12.3624 268.616 13.2934L270.07 14.6666ZM271.923 13.9C272.703 13.9 273.295 14.1576 273.776 14.6666L275.23 13.2934C274.35 12.3624 273.222 11.9 271.923 11.9V13.9ZM273.796 14.6871C274.272 15.1634 274.523 15.7614 274.523 16.56H276.523C276.523 15.2786 276.094 14.1566 275.21 13.2729L273.796 14.6871ZM274.523 16.56V31.8H276.523V16.56H274.523ZM274.523 31.8C274.523 34.3645 275.087 36.4711 276.399 37.929L277.886 36.591C277.038 35.6489 276.523 34.1155 276.523 31.8H274.523ZM276.411 37.9414C277.741 39.3701 279.669 40 282.003 40V38C280.016 38 278.704 37.4699 277.875 36.5786L276.411 37.9414ZM282.003 40C284.369 40 286.321 39.3736 287.655 37.9414L286.191 36.5786C285.364 37.4664 284.036 38 282.003 38V40ZM287.666 37.929C288.978 36.4711 289.543 34.3645 289.543 31.8H287.543C287.543 34.1155 287.027 35.6489 286.179 36.591L287.666 37.929ZM289.543 31.8V16.56H287.543V31.8H289.543ZM289.543 16.56C289.543 15.7614 289.794 15.1634 290.27 14.6871L288.856 13.2729C287.972 14.1566 287.543 15.2786 287.543 16.56H289.543ZM290.29 14.6666C290.77 14.1576 291.362 13.9 292.143 13.9V11.9C290.843 11.9 289.715 12.3624 288.836 13.2934L290.29 14.6666ZM79.363 112.42L80.2832 112.811L81.0305 111.054L79.1604 111.441L79.363 112.42ZM66.403 142.9L65.4827 142.509L65.4731 142.531L65.4646 142.554L66.403 142.9ZM65.083 144.7L65.6643 145.514L65.6743 145.506L65.083 144.7ZM60.823 144.4L61.5787 143.745L61.5787 143.745L60.823 144.4ZM60.223 141.04L59.2998 140.656L59.28 140.703L59.2651 140.753L60.223 141.04ZM75.163 105.16L76.0862 105.544L76.0914 105.531L75.163 105.16ZM76.603 103.3L76.0597 102.46L76.048 102.468L76.0364 102.476L76.603 103.3ZM78.763 102.76L78.6583 103.755L78.7105 103.76H78.763V102.76ZM80.743 103.42L80.1516 104.226L80.1815 104.248L80.213 104.268L80.743 103.42ZM82.123 105.16L81.1846 105.506L81.1923 105.527L81.2009 105.547L82.123 105.16ZM96.883 140.32L97.8163 139.961L97.8109 139.947L97.805 139.933L96.883 140.32ZM96.103 144.34L95.4386 143.593L95.428 143.602L95.4176 143.612L96.103 144.34ZM91.843 144.64L91.2251 145.426L91.2382 145.437L91.2516 145.446L91.843 144.64ZM90.523 142.84L91.4446 142.452L91.4419 142.446L90.523 142.84ZM77.623 112.78L77.4204 111.801L76.221 112.049L76.704 113.174L77.623 112.78ZM68.263 135.58L67.3608 135.149L66.6762 136.58H68.263V135.58ZM71.563 128.68V127.68H70.9327L70.6608 128.249L71.563 128.68ZM87.763 128.68L88.7496 128.517L88.6113 127.68H87.763V128.68ZM88.903 135.58V136.58H90.0817L89.8896 135.417L88.903 135.58ZM78.4427 112.029L65.4827 142.509L67.3232 143.291L80.2832 112.811L78.4427 112.029ZM65.4646 142.554C65.2463 143.147 64.9192 143.58 64.4916 143.894L65.6743 145.506C66.4468 144.94 66.9997 144.173 67.3413 143.246L65.4646 142.554ZM64.5017 143.886C64.1091 144.167 63.6919 144.3 63.223 144.3V146.3C64.1141 146.3 64.9368 146.033 65.6642 145.514L64.5017 143.886ZM63.223 144.3C62.3233 144.3 61.8471 144.055 61.5787 143.745L60.0673 145.055C60.8389 145.945 61.9626 146.3 63.223 146.3V144.3ZM61.5787 143.745C61.2336 143.347 61.043 142.847 61.043 142.18H59.043C59.043 143.273 59.3723 144.253 60.0673 145.055L61.5787 143.745ZM61.043 142.18C61.043 141.931 61.0844 141.649 61.1808 141.327L59.2651 140.753C59.1215 141.231 59.043 141.709 59.043 142.18H61.043ZM61.1461 141.424L76.0861 105.544L74.2398 104.776L59.2998 140.656L61.1461 141.424ZM76.0914 105.531C76.3465 104.894 76.7097 104.44 77.1695 104.124L76.0364 102.476C75.2162 103.04 74.6195 103.826 74.2345 104.789L76.0914 105.531ZM77.1462 104.14C77.6467 103.816 78.1399 103.7 78.6583 103.755L78.8677 101.765C77.8661 101.66 76.9193 101.904 76.0597 102.46L77.1462 104.14ZM78.763 103.76C79.2628 103.76 79.717 103.908 80.1516 104.226L81.3343 102.614C80.569 102.052 79.7031 101.76 78.763 101.76V103.76ZM80.213 104.268C80.6508 104.542 80.9753 104.938 81.1846 105.506L83.0613 104.814C82.7106 103.862 82.1152 103.098 81.273 102.572L80.213 104.268ZM81.2009 105.547L95.9609 140.707L97.805 139.933L83.045 104.773L81.2009 105.547ZM95.9496 140.679C96.1168 141.114 96.183 141.471 96.183 141.76H98.183C98.183 141.169 98.0491 140.566 97.8163 139.961L95.9496 140.679ZM96.183 141.76C96.183 142.593 95.9179 143.167 95.4386 143.593L96.7673 145.087C97.728 144.233 98.183 143.087 98.183 141.76H96.183ZM95.4176 143.612C94.9006 144.098 94.379 144.3 93.823 144.3V146.3C94.947 146.3 95.9453 145.862 96.7883 145.068L95.4176 143.612ZM93.823 144.3C93.3231 144.3 92.869 144.152 92.4343 143.834L91.2516 145.446C92.017 146.008 92.8828 146.3 93.823 146.3V144.3ZM92.4608 143.854C92.054 143.534 91.7092 143.08 91.4446 142.452L89.6013 143.228C89.9767 144.12 90.512 144.866 91.2251 145.426L92.4608 143.854ZM91.4419 142.446L78.5419 112.386L76.704 113.174L89.604 143.234L91.4419 142.446ZM77.8256 113.759L79.5656 113.399L79.1604 111.441L77.4204 111.801L77.8256 113.759ZM69.1651 136.011L72.4651 129.111L70.6608 128.249L67.3608 135.149L69.1651 136.011ZM71.563 129.68H87.763V127.68H71.563V129.68ZM86.7763 128.843L87.9163 135.743L89.8896 135.417L88.7496 128.517L86.7763 128.843ZM88.903 134.58H68.263V136.58H88.903V134.58ZM132.323 143.98L133.03 144.687L133.04 144.677L133.05 144.667L132.323 143.98ZM127.163 143.98L126.436 144.667L126.446 144.677L126.456 144.687L127.163 143.98ZM126.143 138.4L126.522 137.474L125.143 136.91V138.4H126.143ZM127.463 138.94H128.463V138.269L127.842 138.014L127.463 138.94ZM126.623 140.86L127.413 141.474L127.421 141.464L127.428 141.453L126.623 140.86ZM124.343 143.02L124.943 143.82L124.943 143.82L124.343 143.02ZM120.923 144.88L121.274 145.816L121.282 145.813L121.29 145.81L120.923 144.88ZM109.223 143.5L108.682 144.341L108.693 144.348L109.223 143.5ZM103.883 137.62L102.992 138.073L102.996 138.081L103.001 138.09L103.883 137.62ZM103.883 120.34L102.997 119.876L102.995 119.881L103.883 120.34ZM109.163 114.46L109.7 115.304L109.711 115.297L109.163 114.46ZM121.223 113.08L120.884 114.021L120.884 114.021L121.223 113.08ZM124.943 115.06L124.334 115.853L124.341 115.858L124.348 115.864L124.943 115.06ZM127.403 117.52L126.571 118.075L126.587 118.098L126.603 118.12L127.403 117.52ZM128.303 119.56L128.643 120.501L129.303 120.262V119.56H128.303ZM126.143 120.34H125.143V121.764L126.483 121.281L126.143 120.34ZM127.163 101.68L127.87 102.387L127.88 102.377L127.89 102.367L127.163 101.68ZM122.243 137.68L121.689 136.848L121.689 136.848L122.243 137.68ZM125.303 134.08L124.409 133.633L124.404 133.642L124.4 133.652L125.303 134.08ZM125.303 123.82L124.4 124.248L124.404 124.258L124.409 124.267L125.303 123.82ZM122.243 120.22L121.689 121.052L121.689 121.052L122.243 120.22ZM113.063 120.22L113.618 121.052L113.618 121.052L113.063 120.22ZM109.943 123.82L109.049 123.373L109.044 123.382L109.04 123.392L109.943 123.82ZM109.943 134.08L109.04 134.508L109.044 134.518L109.049 134.527L109.943 134.08ZM113.063 137.68L113.618 136.848L113.618 136.848L113.063 137.68ZM129.743 101.6C130.542 101.6 131.14 101.851 131.616 102.327L133.03 100.913C132.147 100.029 131.025 99.6 129.743 99.6V101.6ZM131.616 102.327C132.085 102.796 132.343 103.41 132.343 104.26H134.343C134.343 102.95 133.922 101.804 133.03 100.913L131.616 102.327ZM132.343 104.26V141.34H134.343V104.26H132.343ZM132.343 141.34C132.343 142.139 132.091 142.769 131.596 143.293L133.05 144.667C133.915 143.751 134.343 142.621 134.343 141.34H132.343ZM131.616 143.273C131.14 143.749 130.542 144 129.743 144V146C131.025 146 132.147 145.571 133.03 144.687L131.616 143.273ZM129.743 144C128.945 144 128.347 143.749 127.87 143.273L126.456 144.687C127.34 145.571 128.462 146 129.743 146V144ZM127.89 143.293C127.395 142.769 127.143 142.139 127.143 141.34H125.143C125.143 142.621 125.571 143.751 126.436 144.667L127.89 143.293ZM127.143 141.34V138.4H125.143V141.34H127.143ZM125.765 139.326L127.085 139.866L127.842 138.014L126.522 137.474L125.765 139.326ZM126.463 138.94C126.463 139.133 126.342 139.556 125.818 140.267L127.428 141.453C128.025 140.644 128.463 139.787 128.463 138.94H126.463ZM125.834 140.246C125.343 140.878 124.653 141.538 123.743 142.22L124.943 143.82C125.953 143.062 126.784 142.282 127.413 141.474L125.834 140.246ZM123.743 142.22C122.867 142.878 121.808 143.457 120.557 143.95L121.29 145.81C122.678 145.263 123.9 144.602 124.943 143.82L123.743 142.22ZM120.572 143.944C119.416 144.377 118.137 144.6 116.723 144.6V146.6C118.35 146.6 119.87 146.343 121.274 145.816L120.572 143.944ZM116.723 144.6C114.142 144.6 111.827 143.948 109.753 142.652L108.693 144.348C111.1 145.852 113.785 146.6 116.723 146.6V144.6ZM109.764 142.659C107.676 141.316 106.01 139.488 104.766 137.15L103.001 138.09C104.396 140.712 106.291 142.804 108.683 144.341L109.764 142.659ZM104.775 137.167C103.576 134.807 102.963 132.086 102.963 128.98H100.963C100.963 132.354 101.631 135.393 102.992 138.073L104.775 137.167ZM102.963 128.98C102.963 125.832 103.577 123.114 104.772 120.799L102.995 119.881C101.63 122.526 100.963 125.568 100.963 128.98H102.963ZM104.769 120.804C106.016 118.424 107.661 116.601 109.7 115.304L108.626 113.616C106.266 115.119 104.391 117.216 102.997 119.876L104.769 120.804ZM109.711 115.297C111.745 113.965 113.994 113.3 116.483 113.3V111.3C113.613 111.3 110.982 112.075 108.616 113.623L109.711 115.297ZM116.483 113.3C118.102 113.3 119.565 113.544 120.884 114.021L121.563 112.139C120.001 111.576 118.305 111.3 116.483 111.3V113.3ZM120.884 114.021C122.242 114.511 123.388 115.125 124.334 115.853L125.553 114.267C124.419 113.395 123.084 112.689 121.563 112.139L120.884 114.021ZM124.348 115.864C125.364 116.616 126.092 117.357 126.571 118.075L128.235 116.965C127.594 116.003 126.682 115.104 125.539 114.256L124.348 115.864ZM126.603 118.12C127.163 118.867 127.303 119.329 127.303 119.56H129.303C129.303 118.671 128.843 117.773 128.203 116.92L126.603 118.12ZM127.964 118.619L125.804 119.399L126.483 121.281L128.643 120.501L127.964 118.619ZM127.143 120.34V104.26H125.143V120.34H127.143ZM127.143 104.26C127.143 103.461 127.394 102.863 127.87 102.387L126.456 100.973C125.572 101.857 125.143 102.979 125.143 104.26H127.143ZM127.89 102.367C128.371 101.858 128.963 101.6 129.743 101.6V99.6C128.444 99.6 127.316 100.062 126.436 100.993L127.89 102.367ZM117.623 140C119.558 140 121.296 139.513 122.798 138.512L121.689 136.848C120.551 137.607 119.208 138 117.623 138V140ZM122.798 138.512C124.278 137.525 125.414 136.182 126.207 134.508L124.4 133.652C123.752 135.018 122.849 136.075 121.689 136.848L122.798 138.512ZM126.198 134.527C127.034 132.854 127.443 130.999 127.443 128.98H125.443C125.443 130.721 125.092 132.266 124.409 133.633L126.198 134.527ZM127.443 128.98C127.443 126.925 127.036 125.049 126.198 123.373L124.409 124.267C125.091 125.631 125.443 127.195 125.443 128.98H127.443ZM126.207 123.392C125.414 121.718 124.278 120.375 122.798 119.388L121.689 121.052C122.849 121.825 123.752 122.882 124.4 124.248L126.207 123.392ZM122.798 119.388C121.296 118.387 119.558 117.9 117.623 117.9V119.9C119.208 119.9 120.551 120.293 121.689 121.052L122.798 119.388ZM117.623 117.9C115.723 117.9 114.007 118.389 112.509 119.388L113.618 121.052C114.76 120.291 116.083 119.9 117.623 119.9V117.9ZM112.509 119.388C111.033 120.371 109.881 121.709 109.049 123.373L110.838 124.267C111.526 122.891 112.453 121.829 113.618 121.052L112.509 119.388ZM109.04 123.392C108.248 125.063 107.863 126.933 107.863 128.98H109.863C109.863 127.187 110.199 125.617 110.847 124.248L109.04 123.392ZM107.863 128.98C107.863 130.99 108.249 132.839 109.04 134.508L110.847 133.652C110.198 132.281 109.863 130.73 109.863 128.98H107.863ZM109.049 134.527C109.881 136.191 111.033 137.529 112.509 138.512L113.618 136.848C112.453 136.071 111.526 135.009 110.838 133.633L109.049 134.527ZM112.509 138.512C114.007 139.511 115.723 140 117.623 140V138C116.083 138 114.76 137.609 113.618 136.848L112.509 138.512ZM170.277 113.98L169.55 114.667L169.559 114.677L169.569 114.687L170.277 113.98ZM167.757 141.88L168.481 142.569L168.481 142.569L167.757 141.88ZM147.357 141.88L146.626 142.563L146.632 142.569L147.357 141.88ZM144.897 113.98L145.604 114.687L145.614 114.677L145.624 114.667L144.897 113.98ZM150.057 113.98L149.33 114.667L149.339 114.677L149.349 114.687L150.057 113.98ZM152.697 137.26L151.953 137.929L151.959 137.935L151.965 137.941L152.697 137.26ZM162.477 137.26L163.208 137.941L163.214 137.935L163.22 137.929L162.477 137.26ZM165.117 113.98L165.824 114.687L165.834 114.677L165.844 114.667L165.117 113.98ZM167.697 113.9C168.477 113.9 169.069 114.158 169.55 114.667L171.004 113.293C170.124 112.362 168.996 111.9 167.697 111.9V113.9ZM169.569 114.687C170.046 115.163 170.297 115.761 170.297 116.56H172.297C172.297 115.279 171.867 114.157 170.984 113.273L169.569 114.687ZM170.297 116.56V131.8H172.297V116.56H170.297ZM170.297 131.8C170.297 135.848 169.175 138.938 167.032 141.191L168.481 142.569C171.058 139.862 172.297 136.232 172.297 131.8H170.297ZM167.032 141.191C164.913 143.418 161.808 144.6 157.557 144.6V146.6C162.185 146.6 165.88 145.302 168.481 142.569L167.032 141.191ZM157.557 144.6C153.305 144.6 150.2 143.418 148.081 141.191L146.632 142.569C149.233 145.302 152.928 146.6 157.557 146.6V144.6ZM148.087 141.197C145.98 138.945 144.877 135.852 144.877 131.8H142.877C142.877 136.228 144.093 139.855 146.626 142.563L148.087 141.197ZM144.877 131.8V116.56H142.877V131.8H144.877ZM144.877 116.56C144.877 115.761 145.127 115.163 145.604 114.687L144.189 113.273C143.306 114.157 142.877 115.279 142.877 116.56H144.877ZM145.624 114.667C146.104 114.158 146.696 113.9 147.477 113.9V111.9C146.177 111.9 145.049 112.362 144.17 113.293L145.624 114.667ZM147.477 113.9C148.257 113.9 148.849 114.158 149.33 114.667L150.784 113.293C149.904 112.362 148.776 111.9 147.477 111.9V113.9ZM149.349 114.687C149.826 115.163 150.077 115.761 150.077 116.56H152.077C152.077 115.279 151.647 114.157 150.764 113.273L149.349 114.687ZM150.077 116.56V131.8H152.077V116.56H150.077ZM150.077 131.8C150.077 134.364 150.641 136.471 151.953 137.929L153.44 136.591C152.592 135.649 152.077 134.116 152.077 131.8H150.077ZM151.965 137.941C153.295 139.37 155.223 140 157.557 140V138C155.57 138 154.258 137.47 153.428 136.579L151.965 137.941ZM157.557 140C159.923 140 161.875 139.374 163.208 137.941L161.745 136.579C160.918 137.466 159.59 138 157.557 138V140ZM163.22 137.929C164.532 136.471 165.097 134.364 165.097 131.8H163.097C163.097 134.116 162.581 135.649 161.733 136.591L163.22 137.929ZM165.097 131.8V116.56H163.097V131.8H165.097ZM165.097 116.56C165.097 115.761 165.347 115.163 165.824 114.687L164.409 113.273C163.526 114.157 163.097 115.279 163.097 116.56H165.097ZM165.844 114.667C166.324 114.158 166.916 113.9 167.697 113.9V111.9C166.397 111.9 165.269 112.362 164.39 113.293L165.844 114.667ZM202.071 102.16L201.364 102.867L201.377 102.88L201.391 102.893L202.071 102.16ZM202.011 106.66L201.304 105.953L201.304 105.953L202.011 106.66ZM198.411 107.26L198.144 108.224L198.169 108.231L198.194 108.236L198.411 107.26ZM193.971 107.62L193.354 106.834L193.339 106.845L193.325 106.857L193.971 107.62ZM192.891 109.18L193.833 109.516L193.837 109.506L193.84 109.496L192.891 109.18ZM191.571 143.98L192.279 144.687L192.289 144.677L192.298 144.667L191.571 143.98ZM186.411 143.98L185.684 144.667L185.694 144.677L185.704 144.687L186.411 143.98ZM188.391 103.54L187.691 102.826L187.691 102.826L188.391 103.54ZM200.451 114.46L199.744 115.167L199.756 115.179L199.767 115.19L200.451 114.46ZM200.451 119.2L201.135 119.93L201.147 119.919L201.159 119.907L200.451 119.2ZM179.751 119.2L179.044 119.907L179.056 119.919L179.067 119.93L179.751 119.2ZM179.751 114.46L180.435 115.19L180.447 115.179L180.459 115.167L179.751 114.46ZM197.391 101.6C198.179 101.6 198.947 101.707 199.697 101.922L200.246 99.9985C199.316 99.7328 198.364 99.6 197.391 99.6V101.6ZM199.697 101.922C200.391 102.12 200.937 102.439 201.364 102.867L202.779 101.453C202.086 100.761 201.232 100.28 200.246 99.9985L199.697 101.922ZM201.391 102.893C201.716 103.194 201.911 103.612 201.911 104.26H203.911C203.911 103.148 203.547 102.166 202.752 101.427L201.391 102.893ZM201.911 104.26C201.911 105.046 201.684 105.574 201.304 105.953L202.719 107.367C203.539 106.546 203.911 105.474 203.911 104.26H201.911ZM201.304 105.953C200.923 106.334 200.514 106.5 200.031 106.5V108.5C201.069 108.5 201.98 108.106 202.719 107.367L201.304 105.953ZM200.031 106.5C199.786 106.5 199.335 106.441 198.628 106.284L198.194 108.236C198.928 108.399 199.557 108.5 200.031 108.5V106.5ZM198.679 106.296C197.88 106.075 197.09 105.96 196.311 105.96V107.96C196.893 107.96 197.502 108.045 198.144 108.224L198.679 106.296ZM196.311 105.96C195.176 105.96 194.149 106.209 193.354 106.834L194.589 108.406C194.914 108.151 195.447 107.96 196.311 107.96V105.96ZM193.325 106.857C192.677 107.406 192.205 108.076 191.943 108.864L193.84 109.496C193.978 109.084 194.226 108.714 194.617 108.383L193.325 106.857ZM191.95 108.844C191.724 109.476 191.591 110.093 191.591 110.68H193.591C193.591 110.387 193.659 110.004 193.833 109.516L191.95 108.844ZM191.591 110.68V141.34H193.591V110.68H191.591ZM191.591 141.34C191.591 142.139 191.34 142.769 190.844 143.293L192.298 144.667C193.163 143.751 193.591 142.621 193.591 141.34H191.591ZM190.864 143.273C190.388 143.749 189.79 144 188.991 144V146C190.273 146 191.395 145.571 192.279 144.687L190.864 143.273ZM188.991 144C188.193 144 187.595 143.749 187.119 143.273L185.704 144.687C186.588 145.571 187.71 146 188.991 146V144ZM187.138 143.293C186.643 142.769 186.391 142.139 186.391 141.34H184.391C184.391 142.621 184.82 143.751 185.684 144.667L187.138 143.293ZM186.391 141.34V110.74H184.391V141.34H186.391ZM186.391 110.74C186.391 108.164 187.286 106.023 189.091 104.254L187.691 102.826C185.497 104.977 184.391 107.636 184.391 110.74H186.391ZM189.091 104.254C190.837 102.543 193.541 101.6 197.391 101.6V99.6C193.242 99.6 189.946 100.617 187.691 102.826L189.091 104.254ZM198.051 114.5C198.764 114.5 199.304 114.727 199.744 115.167L201.159 113.753C200.319 112.913 199.259 112.5 198.051 112.5V114.5ZM199.767 115.19C200.186 115.582 200.411 116.087 200.411 116.8H202.411C202.411 115.593 201.997 114.538 201.135 113.73L199.767 115.19ZM200.411 116.8C200.411 117.513 200.185 118.053 199.744 118.493L201.159 119.907C201.998 119.067 202.411 118.007 202.411 116.8H200.411ZM199.767 118.47C199.331 118.88 198.783 119.1 198.051 119.1V121.1C199.239 121.1 200.292 120.72 201.135 119.93L199.767 118.47ZM198.051 119.1H182.151V121.1H198.051V119.1ZM182.151 119.1C181.419 119.1 180.872 118.88 180.435 118.47L179.067 119.93C179.911 120.72 180.963 121.1 182.151 121.1V119.1ZM180.459 118.493C180.018 118.053 179.791 117.513 179.791 116.8H177.791C177.791 118.007 178.205 119.067 179.044 119.907L180.459 118.493ZM179.791 116.8C179.791 116.087 180.017 115.582 180.435 115.19L179.067 113.73C178.206 114.538 177.791 115.593 177.791 116.8H179.791ZM180.459 115.167C180.899 114.727 181.439 114.5 182.151 114.5V112.5C180.944 112.5 179.884 112.913 179.044 113.753L180.459 115.167ZM182.151 114.5H198.051V112.5H182.151V114.5ZM213.306 143.5L212.804 144.365L212.812 144.37L212.821 144.374L213.306 143.5ZM207.546 137.68L206.667 138.156L206.673 138.167L207.546 137.68ZM207.726 120.22L206.861 119.719L206.858 119.724L207.726 120.22ZM213.486 114.34L212.987 113.474L212.987 113.474L213.486 114.34ZM226.746 113.56L226.324 114.466L226.331 114.47L226.746 113.56ZM231.606 117.04L230.88 117.727L230.889 117.737L231.606 117.04ZM234.906 122.08L233.983 122.465L233.987 122.473L233.99 122.481L234.906 122.08ZM236.166 128.2L237.166 128.242L237.166 128.221V128.2H236.166ZM235.026 130.54L234.386 129.772L235.026 130.54ZM209.586 131.44L208.629 131.727L208.842 132.44H209.586V131.44ZM207.786 125.44V124.44H206.442L206.829 125.727L207.786 125.44ZM229.806 125.44L230.479 126.18L232.393 124.44H229.806V125.44ZM228.486 126.64H227.486V128.901L229.159 127.38L228.486 126.64ZM228.486 125.02H229.486V124.986L229.484 124.951L228.486 125.02ZM227.226 121.9L226.439 122.516L226.447 122.527L226.455 122.537L227.226 121.9ZM224.466 119.74L224.006 120.628L224.025 120.638L224.045 120.647L224.466 119.74ZM217.626 119.38L217.92 120.336L217.92 120.336L217.626 119.38ZM214.926 121L215.634 121.707L215.634 121.707L214.926 121ZM213.126 124.06L214.072 124.385L214.072 124.385L213.126 124.06ZM213.786 134.44L212.921 134.941L212.929 134.955L212.937 134.968L213.786 134.44ZM217.266 137.86L216.77 138.728L216.785 138.737L216.8 138.744L217.266 137.86ZM225.366 138.64L225.103 137.675L225.103 137.675L225.366 138.64ZM227.466 137.8L227.991 138.652L227.999 138.647L228.007 138.641L227.466 137.8ZM228.966 136.9L228.519 136.006L228.503 136.014L228.488 136.022L228.966 136.9ZM233.166 137.26L232.435 137.942L232.447 137.955L232.459 137.967L233.166 137.26ZM232.386 142.3L231.769 141.514L231.754 141.525L231.74 141.537L232.386 142.3ZM228.006 144.64L228.329 145.587L228.338 145.584L228.347 145.58L228.006 144.64ZM222.186 144.6C218.926 144.6 216.139 143.93 213.792 142.626L212.821 144.374C215.514 145.87 218.647 146.6 222.186 146.6V144.6ZM213.809 142.635C211.48 141.283 209.69 139.472 208.42 137.193L206.673 138.167C208.123 140.768 210.173 142.837 212.804 144.365L213.809 142.635ZM208.426 137.204C207.193 134.926 206.566 132.333 206.566 129.4H204.566C204.566 132.627 205.259 135.554 206.667 138.156L208.426 137.204ZM206.566 129.4C206.566 125.933 207.259 123.053 208.595 120.716L206.858 119.724C205.313 122.427 204.566 125.667 204.566 129.4H206.566ZM208.592 120.721C209.992 118.299 211.791 116.471 213.986 115.206L212.987 113.474C210.462 114.929 208.421 117.021 206.861 119.719L208.592 120.721ZM213.986 115.206C216.199 113.931 218.527 113.3 220.986 113.3V111.3C218.165 111.3 215.494 112.029 212.987 113.474L213.986 115.206ZM220.986 113.3C222.884 113.3 224.66 113.69 226.324 114.466L227.169 112.654C225.233 111.75 223.168 111.3 220.986 111.3V113.3ZM226.331 114.47C228.053 115.256 229.568 116.34 230.88 117.727L232.333 116.353C230.845 114.78 229.12 113.544 227.162 112.65L226.331 114.47ZM230.889 117.737C232.199 119.084 233.23 120.657 233.983 122.465L235.829 121.695C234.983 119.663 233.814 117.876 232.323 116.343L230.889 117.737ZM233.99 122.481C234.773 124.271 235.166 126.174 235.166 128.2H237.166C237.166 125.906 236.72 123.729 235.823 121.679L233.99 122.481ZM235.167 128.158C235.139 128.844 234.883 129.358 234.386 129.772L235.667 131.308C236.61 130.522 237.114 129.476 237.166 128.242L235.167 128.158ZM234.386 129.772C233.851 130.218 233.239 130.44 232.506 130.44V132.44C233.694 132.44 234.762 132.062 235.667 131.308L234.386 129.772ZM232.506 130.44H209.586V132.44H232.506V130.44ZM210.544 131.153L208.744 125.153L206.829 125.727L208.629 131.727L210.544 131.153ZM207.786 126.44H229.806V124.44H207.786V126.44ZM229.134 124.7L227.814 125.9L229.159 127.38L230.479 126.18L229.134 124.7ZM229.486 126.64V125.02H227.486V126.64H229.486ZM229.484 124.951C229.389 123.577 228.887 122.34 227.997 121.263L226.455 122.537C227.086 123.3 227.424 124.143 227.489 125.089L229.484 124.951ZM228.014 121.284C227.191 120.232 226.143 119.416 224.888 118.833L224.045 120.647C225.03 121.104 225.822 121.728 226.439 122.516L228.014 121.284ZM224.927 118.852C223.702 118.217 222.383 117.9 220.986 117.9V119.9C222.069 119.9 223.071 120.143 224.006 120.628L224.927 118.852ZM220.986 117.9C219.697 117.9 218.477 118.072 217.332 118.424L217.92 120.336C218.856 120.048 219.876 119.9 220.986 119.9V117.9ZM217.332 118.424C216.138 118.792 215.096 119.416 214.219 120.293L215.634 121.707C216.277 121.064 217.034 120.608 217.92 120.336L217.332 118.424ZM214.219 120.293C213.328 121.185 212.658 122.347 212.181 123.735L214.072 124.385C214.475 123.213 215.005 122.335 215.634 121.707L214.219 120.293ZM212.181 123.735C211.693 125.155 211.466 126.894 211.466 128.92H213.466C213.466 127.026 213.68 125.525 214.072 124.385L212.181 123.735ZM211.466 128.92C211.466 131.216 211.935 133.237 212.921 134.941L214.652 133.939C213.878 132.603 213.466 130.944 213.466 128.92H211.466ZM212.937 134.968C213.938 136.577 215.215 137.839 216.77 138.728L217.763 136.992C216.518 136.281 215.475 135.263 214.636 133.912L212.937 134.968ZM216.8 138.744C218.381 139.579 220.061 140 221.826 140V138C220.392 138 219.032 137.661 217.733 136.976L216.8 138.744ZM221.826 140C223.347 140 224.627 139.878 225.63 139.605L225.103 137.675C224.345 137.882 223.265 138 221.826 138V140ZM225.63 139.605C226.561 139.351 227.36 139.04 227.991 138.652L226.942 136.948C226.533 137.2 225.932 137.449 225.103 137.675L225.63 139.605ZM228.007 138.641C228.553 138.29 229.032 138.003 229.445 137.778L228.488 136.022C228.021 136.277 227.5 136.59 226.926 136.959L228.007 138.641ZM229.414 137.794C230.03 137.486 230.556 137.36 231.006 137.36V135.36C230.176 135.36 229.343 135.594 228.519 136.006L229.414 137.794ZM231.006 137.36C231.632 137.36 232.079 137.561 232.435 137.942L233.897 136.578C233.134 135.759 232.141 135.36 231.006 135.36V137.36ZM232.459 137.967C232.884 138.392 233.066 138.843 233.066 139.36H235.066C235.066 138.277 234.648 137.328 233.874 136.553L232.459 137.967ZM233.066 139.36C233.066 140.041 232.73 140.758 231.769 141.514L233.004 143.086C234.282 142.082 235.066 140.839 235.066 139.36H233.066ZM231.74 141.537C230.823 142.313 229.482 143.043 227.666 143.7L228.347 145.58C230.291 144.877 231.87 144.047 233.032 143.063L231.74 141.537ZM227.684 143.693C225.909 144.298 224.078 144.6 222.186 144.6V146.6C224.295 146.6 226.344 146.262 228.329 145.587L227.684 143.693Z" fill="white"/>
</svg>
